<svg version="1.2" xmlns="http://www.w3.org/2000/svg" viewBox="0 0 500 500" width="500" height="500">
	<title>3372973_507335-PHX0DR-357-svg</title>
	<style>
		.s0 { fill: #0e1b33 } 
		.s1 { fill: #091426 } 
		.s2 { fill: #844232 } 
		.s3 { fill: #a04c3c } 
		.s4 { fill: #f7e714 } 
		.s5 { fill: #e5ae15 } 
		.s6 { fill: #d8a61a } 
		.s7 { fill: #b78813 } 
		.s8 { fill: #ffff00 } 
		.s9 { opacity: .3;fill: #b78813 } 
		.s10 { fill: #d38c0d } 
		.s11 { fill: #3e628c } 
		.s12 { fill: #ffffff } 
		.s13 { opacity: .3;fill: #3e628c } 
		.s14 { fill: #663e31 } 
		.s15 { fill: #4c3025 } 
		.s16 { fill: #87c437 } 
		.s17 { fill: #4c911f } 
		.s18 { fill: #3d7717 } 
		.s19 { fill: #d34646 } 
		.s20 { fill: #c7d4e2 } 
		.s21 { fill: #76b230 } 
		.s22 { fill: #aa3737 } 
	</style>
	<g id="BACKGROUND">
		<path id="Layer" class="s0" d="m0 0h500v500h-500z"/>
		<path id="Layer" class="s1" d="m250 426.6c-65 0-117.5-8.5-117.5-19.1 0-10.5 52.5-19 117.5-19 65 0 117.5 8.5 117.5 19 0 10.6-52.5 19.1-117.5 19.1z"/>
	</g>
	<g id="OBJECTS">
		<g id="Layer">
			<g id="Layer">
				<path id="Layer" class="s2" d="m335.3 120.3c-7.3 2.5-13.4 7.2-19.2 12.2 0.7-15.3 5.1-30 13-43.1 0.8-1.4-1.3-2.6-2.1-1.2-8.5 14.1-13.1 30-13.5 46.5-6.5 5.6-12.9 11.3-20.8 14.3 2.8-5.9 4.5-12.3 4.4-19.5-0.1-3.2-5-3.2-5 0 0.2 12.8-5.9 23.2-13.5 33-2.3-10.7-7.7-20.6-11.6-30.7 5.4-2.9 9.7-8.4 13.2-13.2 4.5-6.3 7.8-13.3 10-20.7 0.9-3.1-3.9-4.4-4.8-1.4-1.8 6.2-4.4 12.1-8 17.4-2.9 4.3-7.2 10.4-12 13.2-1.9-5.8-3.1-11.7-2.8-17.9 0.2-3.2-4.8-3.2-4.9 0-1.1 21 14.3 37.6 16.7 57.9q0 0.3 0.1 0.5c-3.6 4.3-7.3 8.6-10.6 13-7.3-11.2-12.9-23.4-16.6-36.3-0.5-1.5-2.9-0.8-2.4 0.7 3.9 13.4 9.7 26.1 17.4 37.7-2.6 3.6-4.9 7.3-6.7 11.1-4.7 10-7.3 20.5-8.5 31.3q-0.1-0.2-0.1-0.4c-1.2-9.2-3-18.3-6.4-27 1.1-13.3-0.9-26.4-6-38.7-0.7-1.5-3-0.9-2.4 0.6 4.4 10.6 6.5 21.8 6.2 33.2-4.2-8.3-10.2-14.8-16.8-21.2q0-0.1 0-0.1c-3.5-9.1-2.5-18.6-1.3-28.1 12.7-15.5 19.2-35.2 18.3-55.3-0.1-1.6-2.6-1.6-2.5 0 0.9 18.1-4.5 36-15.3 50.6 1-8.5 1.6-17-1.5-25.2-1.1-3-5.9-1.7-4.8 1.3 6.1 16.3-2 33.5 0.3 50.1-4.8-4.9-9.1-10.2-11.7-16.5-3.1-8-3.3-17.1-4.9-25.4-1.4-7.2-3-14.8-8.5-20.1-2.3-2.3-5.8 1.2-3.5 3.5 4.4 4.2 6 10.7 7.1 16.9-14.4-2.2-26.5-10.9-37.3-20.4-1.2-1-3 0.7-1.8 1.8 11.5 10 24.2 19.1 39.6 21.1q0.2 1.7 0.5 3.3c0.8 4.6 1.3 9.3 2.2 13.8q-0.1 0.5 0 1.1 0.6 2.9 1.6 5.6c-5.7-1.5-11.6-1.7-17.5-2.7-7.8-1.4-14.3-5.2-20.9-9.5-2.7-1.7-5.1 2.5-2.5 4.3 6.5 4.2 13 8.1 20.7 9.7q1.1 0.2 2.1 0.4-10.1 5.2-21.3 7.9c-1.5 0.3-0.9 2.7 0.7 2.4 8.7-2.2 17-5.4 24.8-9.7 5.7 0.7 11.5 1.2 16.9 3.3 8.3 14 24.2 23.1 32 37.6 2.8 5.2 4.7 10.8 6.2 16.5-5.6-4.9-12.2-8.5-19.3-11.2-10.4-4-22.2-4.7-31.5-11.2-2.6-1.8-5.1 2.5-2.5 4.3 6.7 4.7 14.6 6.4 22.4 8.4-14.3 3.1-28.9 3.6-43.3 1.5-1.6-0.2-2.2 2.1-0.7 2.4 16.4 2.4 32.9 1.6 48.9-2.5q0.8 0.3 1.7 0.5c10 3.3 19.3 8.5 26 16.8q0.1 0.1 0.2 0.1 0.4 2.7 0.8 5.4c1.7 12.3 2.6 24.8 3 37.2 0 1.3 0.8 2 1.7 2.3q0 0.1 0 0.2c0.2 3.2 5.2 3.2 5 0-0.6-9.5-1-19.4-0.5-29.2 6.5-12.6 18.6-21 30.3-28.6 1.3-0.9 0.1-3-1.3-2.2-10.7 7.1-21.6 14.7-28.6 25.4 0.8-10.1 2.8-19.9 6.6-29.2 8.5-6.3 17.8-10.1 28-13 2.3-0.6 4.6-1.3 6.8-2q13.1 2.4 26.2 5.1c1.5 0.3 2.2-2 0.7-2.4q-11.2-2.3-22.3-4.4c4.9-2 9.6-4.6 13.6-8.5 2.3-2.2-1.2-5.7-3.5-3.5-7.4 7.3-17.6 9.3-27.2 12.2-6.4 1.9-12.5 4.5-18.2 7.8q0.1 0 0.1-0.1c7.3-12.8 19.1-23.6 26.9-36.2 19.3-4.3 29.1-24 47.3-30.1 3.1-1 1.8-5.8-1.3-4.8z"/>
				<path id="Layer" fill-rule="evenodd" class="s3" d="m212.1 165.1c-6.1-5.6-10.7-12.7-13.2-20.6-3-9.5-2-19.6-4.5-29.2-0.2-0.7 0.8-0.9 0.9-0.3 2.5 9.1 1.6 18.6 4.1 27.7 2.3 8.3 7 15.8 13.4 21.7 0.4 0.5-0.3 1.2-0.7 0.7zm23.3 27.5q-5.8-9.5-13.4-17.6c-0.4-0.4 0.3-1.2 0.7-0.7q7.7 8.2 13.5 17.8c0.4 0.5-0.5 1-0.8 0.5zm12.7 56.6c0 0.6-1 0.6-1 0-0.5-16.4-2.9-32.6-7.1-48.4-0.2-0.6 0.8-0.9 0.9-0.2 4.3 15.8 6.7 32.2 7.2 48.6zm-29.9-88.3c0.1 0.7-0.9 0.6-1 0-1.8-14.1 3.5-28.2 1.1-42.3-0.1-0.6 0.8-0.9 0.9-0.2 2.5 14.2-2.9 28.3-1 42.5zm-22.6-9.7c-12.5 0.7-24.9-3-34.9-10.4-0.5-0.4-0.1-1.3 0.5-0.9 9.9 7.4 22 11 34.4 10.3 0.6 0 0.6 1 0 1zm42.2 61c-13.6-11.9-32.2-15.6-49.1-20.3-0.6-0.2-0.4-1.2 0.3-1 17.1 4.8 35.8 8.6 49.5 20.6 0.5 0.4-0.2 1.1-0.7 0.7zm57.3-79.3c-0.8 14.6-9.3 26.7-19.1 37-0.4 0.5-1.1-0.2-0.7-0.7 9.5-10.1 18-22 18.8-36.3 0.1-0.6 1.1-0.6 1 0zm-24.8 44.3c-12 11.7-16.6 28.3-20.1 44.2-0.1 0.6-1.1 0.4-0.9-0.3 3.5-16 8.2-32.8 20.3-44.7 0.4-0.4 1.1 0.3 0.7 0.8zm36.5-2c-12.2 9.5-29.1 7.9-41.5 16.8-0.6 0.4-1.1-0.5-0.6-0.8 12.4-8.9 29.3-7.3 41.4-16.7 0.5-0.4 1.2 0.3 0.7 0.7zm27.9-52.3c-16.1 4.8-24.8 21.9-41 26.3-0.7 0.2-0.9-0.7-0.3-0.9 16.2-4.5 24.9-21.6 41-26.4 0.7-0.2 0.9 0.8 0.3 1zm-46.3-24.7c-3.5 11.8-10.5 22.3-20.1 30-0.5 0.4-1.2-0.3-0.7-0.7 9.5-7.6 16.4-17.9 19.8-29.5 0.2-0.7 1.1-0.4 1 0.2zm-14.2 60.8c-2.1-8.8-5.8-16.6-9.4-24.8-3.2-7.3-5-15-5.2-23 0-0.6 1-0.6 1 0 0.3 8.8 2.5 17 6.2 25 3.4 7.3 6.4 14.6 8.4 22.5 0.1 0.7-0.8 0.9-1 0.3z"/>
				<g id="Layer">
					<g id="Layer">
						<g id="Layer">
							<g id="Layer">
								<path id="Layer" class="s4" d="m300.3 103.6c-7.3 3.1-15.6-0.3-18.6-7.6-3.1-7.3 0.3-15.6 7.6-18.6 7.3-3.1 15.6 0.3 18.6 7.6 3.1 7.3-0.3 15.6-7.6 18.6z"/>
								<path id="Layer" class="s5" d="m299.9 102.6c-6.7 2.8-14.4-0.3-17.2-7.1-2.8-6.7 0.3-14.3 7-17.1 6.7-2.8 14.4 0.3 17.2 7 2.8 6.7-0.3 14.4-7 17.2z"/>
								<g id="Layer">
									<path id="Layer" fill-rule="evenodd" class="s6" d="m294.8 102.2c-6.3 0-11.3-5.1-11.3-11.3 0-6.3 5-11.4 11.3-11.4 6.2 0 11.3 5.1 11.3 11.4 0 6.2-5.1 11.3-11.3 11.3zm0-22.2c-6 0-10.8 4.9-10.8 10.9 0 5.9 4.8 10.8 10.8 10.8 6 0 10.8-4.9 10.8-10.8 0-6-4.8-10.9-10.8-10.9z"/>
								</g>
								<g id="Layer">
									<path id="Layer" fill-rule="evenodd" class="s4" d="m294.8 101.8c-6.3 0-11.3-5.1-11.3-11.3 0-6.3 5-11.3 11.3-11.3 6.2 0 11.3 5 11.3 11.3 0 6.2-5.1 11.3-11.3 11.3zm0-22.2c-6 0-10.8 4.9-10.8 10.9 0 6 4.8 10.8 10.8 10.8 6 0 10.8-4.8 10.8-10.8 0-6-4.8-10.9-10.8-10.9z"/>
								</g>
								<path id="Layer" class="s7" d="m294.8 78.1c7.1 0 12.9 5.7 13.1 12.8q0-0.2 0-0.4c0-7.3-5.8-13.1-13.1-13.1-7.3 0-13.1 5.8-13.1 13.1q0 0.2 0 0.4c0.2-7.1 6-12.8 13.1-12.8z"/>
							</g>
							<g id="Layer">
								<path id="Layer" class="s7" d="m299.4 88v-0.4l-0.4 0.1h-1.1q-0.2-0.7-0.7-1.3h1.5q0.1 0 0.2-0.2l0.5-0.6q0-0.1 0-0.2v-0.4h-0.5v0.1h-8.1q-0.2 0-0.3 0.2l-0.2 0.3c-0.1 0-0.2 0-0.2 0l-0.1 0.5c0 0.1 0.2 0.3 0.3 0.3h4.4c0.9 0 1.6 0.5 1.9 1.3h-5.8q-0.2 0.1-0.3 0.2l-0.2 0.3h-0.2v0.5q-0.1 0 0 0.1c0 0.1 0.1 0.2 0.2 0.2h6.3c-0.2 0.8-1 1.4-1.9 1.4h-4.5c-0.2 0-0.3 0.1-0.3 0.3v0.9q0 0.1 0.1 0.2l6.2 5.9h1.1c0.2 0 0.3-0.1 0.3-0.3v-0.4l-0.4-0.1-5.6-5.3h3.1c1.6 0 2.9-1.1 3.2-2.6h0.8q0.1 0 0.2-0.1l0.5-0.7q0-0.1 0-0.2z"/>
								<path id="Layer" class="s4" d="m297.2 86h1.5q0.1 0 0.2-0.2l0.5-0.6c0.1-0.2-0.1-0.5-0.3-0.5h-8.3q-0.2 0-0.3 0.2l-0.4 0.6c-0.1 0.2 0 0.5 0.2 0.5h4.4c0.9 0 1.6 0.5 1.9 1.3h-5.8q-0.2 0-0.3 0.2l-0.4 0.6c-0.1 0.2 0 0.5 0.2 0.5h6.3c-0.2 0.8-1 1.4-1.9 1.4h-4.5c-0.2 0-0.3 0.1-0.3 0.3v0.9q0 0.1 0.1 0.2l6.2 5.9h1.1c0.3 0 0.4-0.3 0.2-0.5l-5.9-5.6h3.1c1.5 0 2.9-1.1 3.2-2.6h0.8q0.1 0 0.2-0.2l0.5-0.6c0.1-0.2-0.1-0.5-0.3-0.5h-1.2q-0.2-0.7-0.7-1.3z"/>
								<path id="Layer" fill-rule="evenodd" class="s8" d="m290.1 88.4q-0.1-0.1 0-0.3l0.4-0.6q0.1-0.2 0.3-0.2h5.7q0.1 0.1 0.1 0.2h-5.8q-0.2 0-0.3 0.2l-0.4 0.6q0 0.1 0 0.1zm0-2.6q-0.1-0.1 0-0.3l0.4-0.6q0.1-0.2 0.3-0.2h8.3c0.2 0 0.4 0.2 0.3 0.4q-0.1-0.2-0.3-0.2h-8.3q-0.2 0-0.3 0.2l-0.4 0.6q0 0.1 0 0.1zm9.3 1.9q-0.1-0.2-0.3-0.2h-1.2q-0.2-0.7-0.7-1.3h0.2q0.3 0.5 0.5 1.1h1.2c0.2 0 0.4 0.2 0.3 0.4zm-9.5 2.8v-0.2c0-0.2 0.1-0.3 0.3-0.3h4.5c0.8 0 1.5-0.5 1.8-1.2h0.1c-0.2 0.8-1 1.4-1.9 1.4h-4.5c-0.2 0-0.3 0.1-0.3 0.3zm7.6 6.3q0.1 0.2 0.1 0.3 0 0-0.1-0.1l-5.9-5.6h0.3z"/>
							</g>
						</g>
						<path id="Layer" class="s9" d="m301.2 100.3c-7.9 0-14.3-6.4-14.3-14.2 0-3.5 1.2-6.6 3.3-9.1-5.6 2-9.6 7.3-9.6 13.5 0 7.9 6.3 14.2 14.2 14.2 4.4 0 8.4-2 11-5.2-1.5 0.5-3 0.8-4.6 0.8z"/>
					</g>
					<g id="Layer">
						<g id="Layer">
							<g id="Layer">
								<path id="Layer" class="s4" d="m305 125.4c-1.4 5.6-6.9 9-12.5 7.7-5.5-1.3-8.9-6.9-7.6-12.4 1.3-5.6 6.9-9 12.4-7.7 5.6 1.3 9 6.9 7.7 12.4z"/>
								<path id="Layer" class="s5" d="m298.5 131.8c-4.8 2-10.4-0.3-12.4-5.1-2-4.9 0.3-10.5 5.2-12.5 4.9-2 10.4 0.4 12.4 5.2 2 4.9-0.3 10.4-5.2 12.4z"/>
								<g id="Layer">
									<path id="Layer" fill-rule="evenodd" class="s6" d="m294.9 131.5c-4.5 0-8.2-3.7-8.2-8.2 0-4.5 3.7-8.2 8.2-8.2 4.5 0 8.2 3.7 8.2 8.2 0 4.5-3.7 8.2-8.2 8.2zm0-16c-4.3 0-7.8 3.5-7.8 7.8 0 4.3 3.5 7.9 7.8 7.9 4.3 0 7.9-3.6 7.9-7.9 0-4.3-3.6-7.8-7.9-7.8z"/>
								</g>
								<g id="Layer">
									<path id="Layer" fill-rule="evenodd" class="s4" d="m294.9 131.3c-4.5 0-8.2-3.7-8.2-8.3 0-4.5 3.7-8.2 8.2-8.2 4.5 0 8.2 3.7 8.2 8.2 0 4.6-3.7 8.3-8.2 8.3zm0-16.1c-4.3 0-7.8 3.5-7.8 7.8 0 4.4 3.5 7.9 7.8 7.9 4.3 0 7.9-3.5 7.9-7.9 0-4.3-3.6-7.8-7.9-7.8z"/>
								</g>
								<path id="Layer" class="s7" d="m294.9 114.1c5.2 0 9.4 4.1 9.5 9.2q0-0.1 0-0.3c0-5.2-4.2-9.5-9.5-9.5-5.2 0-9.5 4.3-9.5 9.5q0 0.2 0 0.3c0.1-5.1 4.4-9.2 9.5-9.2z"/>
							</g>
							<g id="Layer">
								<path id="Layer" class="s7" d="m298.3 121.2v-0.2l-0.4 0.1h-0.7q-0.2-0.6-0.5-1h1q0.2 0 0.2-0.1l0.3-0.5q0.1-0.1 0.1-0.1v-0.3h-0.4v0.1h-5.9q-0.1 0-0.2 0.1l-0.1 0.2q-0.2 0-0.2 0v0.4c0 0.1 0.1 0.2 0.2 0.2h3.1c0.7 0 1.2 0.4 1.4 1h-4.2q-0.1 0-0.2 0.1l-0.1 0.2h-0.2v0.3q0 0.1 0 0.1c0 0.1 0.1 0.2 0.2 0.2h4.5c-0.2 0.6-0.7 1-1.4 1h-3.2c-0.1 0-0.2 0.1-0.2 0.2v0.6q0 0.1 0 0.2l4.5 4.3h0.1 0.7c0.2 0 0.3-0.1 0.3-0.2v-0.3l-0.4-0.1-4-3.8h2.2c1.2 0 2.2-0.8 2.4-1.9h0.5q0.2 0 0.2-0.1l0.3-0.5q0.1-0.1 0.1-0.2z"/>
								<path id="Layer" class="s4" d="m296.7 119.8h1q0.2 0 0.2-0.1l0.3-0.5c0.1-0.2 0-0.3-0.1-0.3h-6.1q-0.1 0-0.2 0.1l-0.3 0.5c-0.1 0.1 0 0.3 0.2 0.3h3.1c0.7 0 1.2 0.4 1.4 1h-4.2q-0.1 0-0.2 0.1l-0.3 0.4c-0.1 0.2 0 0.4 0.2 0.4h4.5c-0.2 0.6-0.7 1-1.4 1h-3.2c-0.1 0-0.2 0.1-0.2 0.2v0.6q0 0.1 0 0.2l4.5 4.3h0.1 0.7c0.2 0 0.3-0.2 0.2-0.4l-4.3-4h2.2c1.2 0 2.2-0.8 2.4-1.9h0.5q0.2 0 0.2-0.1l0.3-0.5c0.1-0.2 0-0.3-0.1-0.3h-0.9q-0.2-0.6-0.5-1z"/>
								<path id="Layer" fill-rule="evenodd" class="s8" d="m291.5 121.5q0-0.1 0-0.2l0.3-0.4q0.1-0.1 0.2-0.1h4.2q0 0 0 0.1h-4.2q-0.1 0-0.2 0.1l-0.3 0.5q0 0 0 0zm0-1.9q0 0 0-0.1l0.3-0.5q0.1-0.1 0.2-0.1h6.1c0.1 0 0.2 0.1 0.1 0.2q0-0.1-0.1-0.1h-6.1q-0.1 0-0.2 0.1l-0.3 0.5q0 0 0 0zm6.7 1.4q0-0.1-0.1-0.1h-0.9q-0.2-0.5-0.5-1h0.1q0.3 0.4 0.4 0.9h0.9c0.1 0 0.2 0.1 0.1 0.2zm-6.8 2v-0.1c0-0.1 0.1-0.2 0.2-0.2h3.2c0.6 0 1.1-0.4 1.4-0.9-0.2 0.6-0.7 1-1.4 1h-3.2c-0.1 0-0.2 0.1-0.2 0.2zm5.5 4.6q0.1 0.2 0 0.3 0-0.1 0-0.1l-4.3-4.1h0.2z"/>
							</g>
						</g>
						<path id="Layer" class="s9" d="m299.5 130.2c-5.7 0-10.3-4.7-10.3-10.4 0-2.4 0.9-4.7 2.4-6.5-4.1 1.4-7 5.2-7 9.7 0 5.7 4.6 10.4 10.3 10.4 3.2 0 6.1-1.5 8-3.8q-1.6 0.5-3.4 0.6z"/>
					</g>
					<g id="Layer">
						<g id="Layer">
							<g id="Layer">
								<path id="Layer" class="s4" d="m364.2 118.2c-1.5 9.1-10 15.2-19 13.7-9-1.5-15.2-10-13.7-19 1.5-9 10-15.1 19-13.7 9 1.5 15.1 10 13.7 19z"/>
								<path id="Layer" class="s5" d="m347.8 130.8c-8.4 0-15.2-6.8-15.2-15.2 0-8.5 6.8-15.3 15.2-15.3 8.5 0 15.3 6.8 15.3 15.3 0 8.4-6.8 15.2-15.3 15.2z"/>
								<g id="Layer">
									<path id="Layer" fill-rule="evenodd" class="s6" d="m347.8 129.2c-7.2 0-13.1-5.9-13.1-13.2 0-7.3 5.9-13.2 13.1-13.2 7.3 0 13.2 5.9 13.2 13.2 0 7.3-5.9 13.2-13.2 13.2zm0-25.8c-6.9 0-12.6 5.7-12.6 12.6 0 6.9 5.7 12.6 12.6 12.6 7 0 12.6-5.7 12.6-12.6 0-6.9-5.6-12.6-12.6-12.6z"/>
								</g>
								<g id="Layer">
									<path id="Layer" fill-rule="evenodd" class="s4" d="m347.8 128.7c-7.2 0-13.1-5.9-13.1-13.1 0-7.3 5.9-13.2 13.1-13.2 7.3 0 13.2 5.9 13.2 13.2 0 7.2-5.9 13.1-13.2 13.1zm0-25.7c-6.9 0-12.6 5.6-12.6 12.6 0 6.9 5.7 12.6 12.6 12.6 7 0 12.6-5.7 12.6-12.6 0-7-5.6-12.6-12.6-12.6z"/>
								</g>
								<path id="Layer" class="s7" d="m347.8 101.2c8.3 0 15.1 6.6 15.3 14.8q0-0.2 0-0.4c0-8.5-6.8-15.3-15.3-15.3-8.4 0-15.2 6.8-15.2 15.3q0 0.2 0 0.4c0.2-8.2 7-14.8 15.2-14.8z"/>
							</g>
							<g id="Layer">
								<path id="Layer" class="s7" d="m353.2 112.7v-0.5l-0.5 0.2h-1.3q-0.2-0.9-0.7-1.6h1.7q0.1 0 0.2-0.2l0.5-0.7q0.1-0.1 0.1-0.2v-0.5h-0.6v0.2h-9.4q-0.2 0-0.3 0.1l-0.3 0.4c-0.1 0-0.3 0-0.3 0v0.6c0 0.1 0.2 0.3 0.4 0.3h5c1 0 1.9 0.6 2.2 1.6h-6.7q-0.2 0-0.3 0.1l-0.3 0.4-0.3 0.1v0.4q0 0.1 0 0.2c0.1 0.1 0.2 0.2 0.4 0.2h7.3c-0.3 1-1.3 1.7-2.3 1.7h-5.2c-0.2 0-0.3 0.1-0.3 0.3v1.1q0 0.1 0.1 0.2l7.1 6.8 0.1 0.1h1.3c0.2 0 0.3-0.2 0.3-0.3v-0.5l-0.5-0.1-6.4-6.2h3.5c1.8 0 3.4-1.3 3.7-3.1h1q0.2 0 0.3-0.1l0.5-0.8q0-0.1 0-0.2z"/>
								<path id="Layer" class="s4" d="m350.7 110.3h1.7q0.1 0 0.2-0.1l0.5-0.8c0.2-0.2 0-0.5-0.2-0.5h-9.7q-0.2 0-0.3 0.1l-0.5 0.8c-0.2 0.2 0 0.5 0.3 0.5h5c1 0 1.9 0.7 2.2 1.6h-6.7q-0.2 0-0.3 0.2l-0.5 0.8c-0.2 0.2 0 0.5 0.3 0.5h7.3c-0.3 0.9-1.3 1.6-2.3 1.6h-5.2c-0.2 0-0.3 0.1-0.3 0.3v1.1q0 0.1 0.1 0.2l7.1 6.9h0.1 1.3c0.3 0 0.4-0.3 0.2-0.5l-6.8-6.6h3.5c1.8 0 3.4-1.3 3.7-3h1q0.2 0 0.3-0.2l0.4-0.8c0.2-0.2 0-0.5-0.2-0.5h-1.5q-0.2-0.9-0.7-1.6z"/>
								<path id="Layer" fill-rule="evenodd" class="s8" d="m342.3 113.1q0-0.1 0.1-0.2l0.5-0.8q0.1-0.2 0.3-0.2h6.6q0.1 0.1 0.1 0.2h-6.7q-0.2 0-0.3 0.2l-0.5 0.8q0 0-0.1 0zm0.1-3q-0.1-0.1 0-0.3l0.5-0.8q0.1-0.1 0.3-0.1h9.7c0.2 0 0.4 0.2 0.3 0.4-0.1-0.1-0.2-0.2-0.3-0.2h-9.7q-0.2 0-0.3 0.2l-0.5 0.8q0 0 0 0zm10.8 2.3c-0.1-0.2-0.2-0.3-0.3-0.3h-1.5q-0.2-0.8-0.7-1.5h0.2q0.4 0.6 0.5 1.3h1.5c0.2 0 0.4 0.3 0.3 0.5zm-11 3.2v-0.3c0-0.2 0.1-0.3 0.3-0.3h5.2c1 0 1.8-0.6 2.2-1.4h0.1c-0.3 1-1.3 1.6-2.3 1.6h-5.2c-0.2 0-0.3 0.2-0.3 0.4zm0 0q0 0 0 0zm8.8 7.4c0.1 0.1 0.1 0.2 0.1 0.3q0-0.1-0.1-0.1l-6.8-6.5h0.2z"/>
							</g>
						</g>
						<path id="Layer" class="s9" d="m355.2 127c-9.1 0-16.5-7.4-16.5-16.6 0-3.9 1.4-7.6 3.8-10.5-6.5 2.3-11.2 8.4-11.2 15.7 0 9.1 7.4 16.5 16.5 16.5 5.2 0 9.8-2.3 12.8-6-1.7 0.6-3.5 0.9-5.4 0.9z"/>
					</g>
					<g id="Layer">
						<g id="Layer">
							<g id="Layer">
								<path id="Layer" class="s4" d="m337.6 95c-4.5 3.5-10.9 2.7-14.4-1.8-3.5-4.5-2.7-10.9 1.8-14.5 4.5-3.5 10.9-2.6 14.4 1.9 3.5 4.5 2.7 10.9-1.8 14.4z"/>
								<path id="Layer" class="s5" d="m337.1 94.4c-4.1 3.2-10.1 2.5-13.3-1.7-3.2-4.1-2.5-10.1 1.7-13.3 4.1-3.3 10.1-2.5 13.3 1.6 3.2 4.2 2.5 10.2-1.7 13.4z"/>
								<g id="Layer">
									<path id="Layer" fill-rule="evenodd" class="s6" d="m331.3 95.3c-4.5 0-8.2-3.6-8.2-8.2 0-4.5 3.7-8.2 8.2-8.2 4.5 0 8.2 3.7 8.2 8.2 0 4.6-3.7 8.2-8.2 8.2zm0-16c-4.3 0-7.9 3.5-7.9 7.8 0 4.4 3.6 7.9 7.9 7.9 4.3 0 7.9-3.5 7.9-7.9 0-4.3-3.6-7.8-7.9-7.8z"/>
								</g>
								<g id="Layer">
									<path id="Layer" fill-rule="evenodd" class="s4" d="m331.3 95.1c-4.5 0-8.2-3.7-8.2-8.2 0-4.6 3.7-8.2 8.2-8.2 4.5 0 8.2 3.6 8.2 8.2 0 4.5-3.7 8.2-8.2 8.2zm0-16.1c-4.3 0-7.9 3.5-7.9 7.9 0 4.3 3.6 7.8 7.9 7.8 4.3 0 7.9-3.5 7.9-7.8 0-4.4-3.6-7.9-7.9-7.9z"/>
								</g>
								<path id="Layer" class="s7" d="m331.3 77.9c5.2 0 9.4 4.1 9.5 9.2q0-0.1 0-0.2c0-5.3-4.2-9.5-9.5-9.5-5.3 0-9.5 4.2-9.5 9.5q0 0.1 0 0.2c0.1-5.1 4.3-9.2 9.5-9.2z"/>
							</g>
							<g id="Layer">
								<path id="Layer" class="s7" d="m334.6 85.1v-0.3l-0.3 0.1h-0.8q-0.1-0.6-0.4-1h1q0.1 0 0.2-0.1l0.3-0.5q0-0.1 0-0.1v-0.3h-0.3v0.1h-5.9q-0.1 0-0.2 0.1l-0.1 0.2q-0.2 0-0.2 0v0.4c0 0.1 0 0.2 0.2 0.2h3.1c0.7 0 1.2 0.4 1.4 1h-4.2q-0.1 0-0.2 0.1l-0.2 0.2h-0.1v0.3q0 0.1 0 0.1c0 0.1 0.1 0.2 0.2 0.2h4.5c-0.2 0.6-0.7 1-1.4 1h-3.2c-0.1 0-0.2 0.1-0.2 0.2v0.7q0 0.1 0 0.1l4.5 4.3h0.8c0.2 0 0.2-0.1 0.2-0.2v-0.3l-0.3-0.1-4-3.8h2.2c1.2 0 2.1-0.8 2.3-1.9h0.6q0.1 0 0.2-0.1l0.3-0.5q0-0.1 0-0.1z"/>
								<path id="Layer" class="s4" d="m333.1 83.6h1q0.1 0 0.2-0.1l0.3-0.5c0.1-0.1 0-0.3-0.2-0.3h-6q-0.1 0-0.2 0.1l-0.3 0.5c-0.1 0.1 0 0.3 0.2 0.3h3.1c0.7 0 1.2 0.4 1.4 1h-4.2q-0.1 0-0.2 0.1l-0.3 0.5c-0.1 0.1 0 0.3 0.2 0.3h4.5c-0.2 0.6-0.7 1-1.4 1h-3.2c-0.1 0-0.2 0.1-0.2 0.2v0.7q0 0.1 0 0.1l4.5 4.3h0.8c0.2 0 0.3-0.2 0.2-0.3l-4.3-4.1h2.2c1.2 0 2.1-0.8 2.3-1.9h0.6q0.1 0 0.2-0.1l0.3-0.5c0.1-0.1 0-0.3-0.2-0.3h-0.9q-0.1-0.6-0.4-1z"/>
								<path id="Layer" fill-rule="evenodd" class="s8" d="m327.9 85.4q-0.1-0.1 0-0.2l0.3-0.5q0.1-0.1 0.2-0.1h4.1q0.1 0.1 0.1 0.1h-4.2q-0.1 0-0.2 0.1l-0.3 0.5q0 0 0 0.1zm0-1.9q-0.1-0.1 0-0.2l0.3-0.5q0.1-0.1 0.2-0.1h6c0.2 0 0.3 0.1 0.2 0.3q0-0.1-0.2-0.2h-6q-0.1 0-0.2 0.1l-0.3 0.5q0 0 0 0.1zm6.7 1.4q0-0.2-0.2-0.2h-0.9q-0.1-0.5-0.4-1h0.1q0.2 0.4 0.3 0.9h0.9c0.2 0 0.3 0.1 0.2 0.3zm-6.8 2v-0.2c0-0.1 0.1-0.2 0.2-0.2h3.2c0.6 0 1.1-0.3 1.4-0.9-0.2 0.6-0.7 1.1-1.4 1.1h-3.2c-0.1 0-0.2 0-0.2 0.2zm0 0q0 0 0 0zm5.5 4.6q0.1 0.1 0 0.2 0-0.1 0-0.1l-4.3-4h0.2z"/>
							</g>
						</g>
						<path id="Layer" class="s9" d="m335.9 94c-5.7 0-10.3-4.6-10.3-10.3 0-2.5 0.9-4.8 2.3-6.6-4 1.4-6.9 5.3-6.9 9.8 0 5.7 4.6 10.3 10.3 10.3 3.2 0 6.1-1.5 8-3.8q-1.6 0.6-3.4 0.6z"/>
					</g>
					<g id="Layer">
						<g id="Layer">
							<g id="Layer">
								<path id="Layer" class="s4" d="m324.8 169.7c-1.3 5.6-6.9 9-12.4 7.7-5.6-1.4-9-6.9-7.7-12.5 1.3-5.5 6.9-8.9 12.4-7.6 5.6 1.3 9 6.9 7.7 12.4z"/>
								<path id="Layer" class="s5" d="m314.7 176.8c-5.2 0-9.5-4.2-9.5-9.5 0-5.2 4.3-9.5 9.5-9.5 5.3 0 9.6 4.3 9.6 9.5 0 5.3-4.3 9.5-9.6 9.5z"/>
								<g id="Layer">
									<path id="Layer" fill-rule="evenodd" class="s6" d="m314.7 175.8c-4.5 0-8.2-3.7-8.2-8.2 0-4.5 3.7-8.2 8.2-8.2 4.6 0 8.3 3.7 8.3 8.2 0 4.5-3.7 8.2-8.3 8.2zm0-16.1c-4.3 0-7.8 3.5-7.8 7.9 0 4.3 3.5 7.8 7.8 7.8 4.4 0 7.9-3.5 7.9-7.8 0-4.4-3.5-7.9-7.9-7.9z"/>
								</g>
								<g id="Layer">
									<path id="Layer" fill-rule="evenodd" class="s4" d="m314.7 175.5c-4.5 0-8.2-3.7-8.2-8.2 0-4.5 3.7-8.2 8.2-8.2 4.6 0 8.3 3.7 8.3 8.2 0 4.5-3.7 8.2-8.3 8.2zm0-16c-4.3 0-7.8 3.5-7.8 7.8 0 4.3 3.5 7.9 7.8 7.9 4.4 0 7.9-3.6 7.9-7.9 0-4.3-3.5-7.8-7.9-7.8z"/>
								</g>
								<path id="Layer" class="s7" d="m314.7 158.3c5.2 0 9.4 4.1 9.6 9.3q0-0.2 0-0.3c0-5.2-4.3-9.5-9.6-9.5-5.2 0-9.5 4.3-9.5 9.5q0 0.1 0 0.3c0.2-5.2 4.4-9.3 9.5-9.3z"/>
							</g>
							<g id="Layer">
								<path id="Layer" class="s7" d="m318.1 165.5v-0.3l-0.3 0.1h-0.8q-0.1-0.5-0.5-1h1.1q0.1 0 0.1-0.1l0.4-0.4q0-0.1 0-0.2v-0.2h-0.4-5.9q-0.1 0-0.2 0.1l-0.1 0.3q-0.2 0-0.2 0v0.3c0 0.1 0.1 0.2 0.2 0.2h3.2c0.6 0 1.2 0.4 1.4 1h-4.3q-0.1 0-0.1 0.1l-0.2 0.3h-0.2v0.3q0 0 0 0.1c0 0.1 0.1 0.1 0.2 0.1h4.6c-0.2 0.6-0.8 1.1-1.4 1.1h-3.3c-0.1 0-0.2 0-0.2 0.2v0.6q0 0.1 0.1 0.2l4.4 4.2 0.1 0.1h0.8c0.1 0 0.2-0.1 0.2-0.2v-0.3l-0.3-0.1-4-3.8h2.2c1.1 0 2.1-0.9 2.3-2h0.6q0.1 0 0.1-0.1l0.4-0.5q0 0 0-0.1z"/>
								<path id="Layer" class="s4" d="m316.5 164h1.1q0.1 0 0.1-0.1l0.4-0.4c0-0.2-0.1-0.4-0.2-0.4h-6.1q-0.1 0-0.2 0.1l-0.3 0.5c0 0.2 0 0.3 0.2 0.3h3.2c0.6 0 1.2 0.4 1.3 1h-4.2q-0.1 0-0.2 0.1l-0.3 0.5c0 0.2 0 0.3 0.2 0.3h4.6c-0.2 0.6-0.8 1.1-1.4 1.1h-3.3c-0.1 0-0.2 0-0.2 0.2v0.6q0 0.1 0.1 0.2l4.4 4.2 0.1 0.1h0.8c0.2 0 0.2-0.3 0.1-0.4l-4.2-4h2.2c1.1 0 2.1-0.9 2.3-2h0.6q0.1 0 0.1-0.1l0.4-0.5c0-0.1-0.1-0.3-0.2-0.3h-0.9q-0.1-0.5-0.5-1z"/>
								<path id="Layer" fill-rule="evenodd" class="s8" d="m311.3 165.8q0-0.1 0-0.2l0.3-0.5q0.1-0.1 0.2-0.1h4.2q0 0.1 0 0.2h-4.2q-0.1 0-0.2 0.1l-0.3 0.5q0 0 0 0zm0-1.9q0-0.1 0-0.2l0.3-0.5q0.1-0.1 0.2-0.1h6.1c0.1 0 0.2 0.2 0.2 0.3q-0.1-0.1-0.2-0.1h-6.1q-0.1 0-0.2 0.1l-0.3 0.5q0 0 0 0zm6.8 1.4q-0.1-0.1-0.2-0.1h-0.9q-0.1-0.6-0.5-1h0.1q0.3 0.4 0.4 0.8h0.9c0.1 0 0.2 0.2 0.2 0.3zm-6.9 2v-0.1c0-0.2 0.1-0.2 0.2-0.2h3.3c0.6 0 1.1-0.4 1.3-0.9h0.1c-0.2 0.6-0.8 1-1.4 1h-3.3c-0.1 0-0.2 0.1-0.2 0.2zm0 0q0 0 0 0zm5.5 4.6q0.1 0.1 0.1 0.2 0 0-0.1 0l-4.2-4.1h0.1z"/>
							</g>
						</g>
						<path id="Layer" class="s9" d="m319.4 174.4c-5.7 0-10.4-4.6-10.4-10.3 0-2.5 0.9-4.8 2.4-6.5-4.1 1.4-7 5.2-7 9.7 0 5.7 4.7 10.3 10.3 10.3 3.3 0 6.1-1.4 8-3.7q-1.6 0.5-3.3 0.5z"/>
					</g>
					<g id="Layer">
						<g id="Layer">
							<g id="Layer">
								<path id="Layer" class="s4" d="m245.8 147.4c-7.1 0-12.9-5.7-12.9-12.8 0-7.1 5.8-12.9 12.9-12.9 7.1 0 12.8 5.8 12.8 12.9 0 7.1-5.7 12.8-12.8 12.8z"/>
								<path id="Layer" class="s5" d="m257.3 137.4c-1.5 6.3-7.9 10.2-14.3 8.7-6.4-1.5-10.3-7.9-8.7-14.3 1.5-6.4 7.9-10.3 14.3-8.8 6.3 1.6 10.3 8 8.7 14.4z"/>
								<g id="Layer">
									<path id="Layer" fill-rule="evenodd" class="s6" d="m245.8 145.1c-5.7 0-10.2-4.6-10.2-10.2 0-5.6 4.5-10.2 10.2-10.2 5.6 0 10.2 4.6 10.2 10.2 0 5.6-4.6 10.2-10.2 10.2zm0-20c-5.4 0-9.8 4.4-9.8 9.8 0 5.4 4.4 9.8 9.8 9.8 5.4 0 9.8-4.4 9.8-9.8 0-5.4-4.4-9.8-9.8-9.8z"/>
								</g>
								<g id="Layer">
									<path id="Layer" fill-rule="evenodd" class="s4" d="m245.8 144.8c-5.7 0-10.2-4.6-10.2-10.2 0-5.7 4.5-10.3 10.2-10.3 5.6 0 10.2 4.6 10.2 10.3 0 5.6-4.6 10.2-10.2 10.2zm0-20c-5.4 0-9.8 4.4-9.8 9.8 0 5.4 4.4 9.8 9.8 9.8 5.4 0 9.8-4.4 9.8-9.8 0-5.4-4.4-9.8-9.8-9.8z"/>
								</g>
								<path id="Layer" class="s7" d="m245.8 123.4c6.4 0 11.7 5.1 11.8 11.5q0-0.2 0-0.3c0-6.6-5.3-11.9-11.8-11.9-6.6 0-11.9 5.3-11.9 11.9q0 0.1 0 0.3c0.2-6.4 5.5-11.5 11.9-11.5z"/>
							</g>
							<g id="Layer">
								<path id="Layer" class="s7" d="m249.9 132.3v-0.3l-0.4 0.1h-0.9q-0.2-0.7-0.6-1.2h1.3q0.1 0 0.2-0.2l0.4-0.6q0.1 0 0.1-0.1v-0.4h-0.5v0.1h-7.4q-0.1 0-0.2 0.2l-0.1 0.2c-0.2 0.1-0.3 0.1-0.3 0.1v0.4c0 0.1 0.1 0.3 0.3 0.3h3.9c0.8 0 1.5 0.5 1.7 1.2h-5.3q-0.1 0-0.2 0.1l-0.2 0.3h-0.2v0.4q0 0.1 0 0.1c0 0.1 0.1 0.2 0.3 0.2h5.6c-0.2 0.8-0.9 1.3-1.7 1.3h-4.1c-0.1 0-0.2 0.1-0.2 0.2v0.9q0 0.1 0.1 0.1l5.5 5.4h0.1 1c0.1 0 0.2-0.1 0.2-0.3v-0.3l-0.4-0.1-4.9-4.8h2.7c1.4 0 2.6-1 2.9-2.4h0.7q0.1 0 0.2-0.1l0.4-0.6q0.1-0.1 0-0.2 0 0 0 0z"/>
								<path id="Layer" class="s4" d="m248 130.5h1.3q0.1 0 0.2-0.1l0.4-0.6c0.1-0.2 0-0.4-0.2-0.4h-7.6q-0.1 0-0.2 0.1l-0.4 0.6c-0.1 0.2 0.1 0.4 0.3 0.4h3.9c0.8 0 1.5 0.5 1.7 1.2h-5.3q-0.1 0-0.2 0.1l-0.4 0.7c-0.1 0.1 0.1 0.3 0.3 0.3h5.6c-0.2 0.8-0.9 1.3-1.7 1.3h-4.1c-0.1 0-0.2 0.1-0.2 0.3v0.8q0 0.1 0.1 0.2l5.5 5.3h0.1 1c0.2 0 0.3-0.2 0.1-0.4l-5.2-5.1h2.7c1.4 0 2.6-1 2.9-2.4h0.7q0.1 0 0.2-0.1l0.4-0.6c0.1-0.2 0-0.4-0.2-0.4h-1.1q-0.2-0.7-0.6-1.2z"/>
								<path id="Layer" fill-rule="evenodd" class="s8" d="m241.5 132.7q0-0.1 0-0.2l0.4-0.7q0.1-0.1 0.2-0.1h5.2q0.1 0.1 0.1 0.2h-5.3q-0.1 0-0.2 0.1l-0.4 0.6q0 0.1 0 0.1zm0-2.4q0-0.1 0-0.2l0.4-0.6q0.1-0.1 0.2-0.1h7.6c0.2 0 0.3 0.2 0.2 0.3q0-0.1-0.2-0.2h-7.6q-0.1 0.1-0.2 0.2l-0.4 0.6q0 0 0 0zm8.4 1.8q0-0.2-0.2-0.2h-1.1q-0.2-0.7-0.6-1.2h0.1q0.4 0.4 0.5 1h1.1c0.2 0 0.3 0.2 0.2 0.4zm-8.5 2.5v-0.2c0-0.2 0.1-0.3 0.2-0.3h4.1c0.7 0 1.4-0.4 1.7-1.1-0.2 0.8-0.9 1.3-1.7 1.3h-4.1c-0.1 0-0.2 0.1-0.2 0.3zm6.8 5.7q0.2 0.1 0.1 0.3 0-0.1-0.1-0.1l-5.2-5.1h0.1z"/>
							</g>
						</g>
						<path id="Layer" class="s9" d="m251.5 143.4c-7.1 0-12.8-5.7-12.8-12.8 0-3.1 1.1-6 2.9-8.2-5 1.8-8.7 6.5-8.7 12.2 0 7.1 5.8 12.8 12.9 12.8 4 0 7.6-1.8 9.9-4.7q-2 0.7-4.2 0.7z"/>
					</g>
					<g id="Layer">
						<g id="Layer">
							<g id="Layer">
								<path id="Layer" class="s4" d="m244.3 163.7c-1.3 5.6-6.8 9-12.4 7.7-5.5-1.3-9-6.9-7.6-12.4 1.3-5.6 6.8-9 12.4-7.7 5.5 1.3 8.9 6.9 7.6 12.4z"/>
								<path id="Layer" class="s5" d="m243.5 163.5c-1.2 5.2-6.3 8.3-11.4 7.1-5.1-1.2-8.3-6.3-7.1-11.4 1.2-5.2 6.4-8.3 11.5-7.1 5.1 1.2 8.3 6.3 7 11.4z"/>
								<g id="Layer">
									<path id="Layer" fill-rule="evenodd" class="s6" d="m234.3 169.8c-4.5 0-8.2-3.7-8.2-8.2 0-4.5 3.7-8.2 8.2-8.2 4.5 0 8.2 3.7 8.2 8.2 0 4.5-3.7 8.2-8.2 8.2zm0-16.1c-4.3 0-7.9 3.6-7.9 7.9 0 4.3 3.6 7.9 7.9 7.9 4.3 0 7.8-3.6 7.8-7.9 0-4.3-3.5-7.9-7.8-7.9z"/>
								</g>
								<g id="Layer">
									<path id="Layer" fill-rule="evenodd" class="s4" d="m234.3 169.6c-4.5 0-8.2-3.7-8.2-8.3 0-4.5 3.7-8.2 8.2-8.2 4.5 0 8.2 3.7 8.2 8.2 0 4.6-3.7 8.3-8.2 8.3zm0-16.1c-4.3 0-7.9 3.5-7.9 7.8 0 4.4 3.6 7.9 7.9 7.9 4.3 0 7.8-3.5 7.8-7.9 0-4.3-3.5-7.8-7.8-7.8z"/>
								</g>
								<path id="Layer" class="s7" d="m234.3 152.3c5.2 0 9.4 4.2 9.5 9.3q0-0.1 0-0.3c0-5.2-4.3-9.5-9.5-9.5-5.3 0-9.5 4.3-9.5 9.5q0 0.2 0 0.3c0.1-5.1 4.3-9.3 9.5-9.3z"/>
							</g>
							<g id="Layer">
								<path id="Layer" class="s7" d="m237.6 159.5v-0.3l-0.3 0.2h-0.8q-0.1-0.6-0.4-1h1q0.1 0 0.2-0.1l0.3-0.5q0-0.1 0-0.1v-0.3h-0.3v0.1h-5.9q-0.1 0-0.2 0.1l-0.1 0.2q-0.2 0-0.2 0v0.3c-0.1 0.2 0 0.3 0.2 0.3h3.1c0.7 0 1.2 0.4 1.4 1h-4.2q-0.1 0-0.2 0l-0.2 0.3h-0.1v0.3q0 0.1 0 0.1c0 0.1 0.1 0.2 0.2 0.2h4.5c-0.2 0.6-0.7 1-1.4 1h-3.2c-0.1 0-0.2 0.1-0.2 0.2v0.6q0 0.1 0 0.2l4.5 4.3h0.8c0.1 0 0.2-0.1 0.2-0.2v-0.3l-0.3-0.1-4-3.8h2.2c1.1 0 2.1-0.8 2.3-1.9h0.6q0.1-0.1 0.2-0.1l0.3-0.5q0-0.1 0-0.2 0 0 0 0z"/>
								<path id="Layer" class="s4" d="m236.1 158.1h1q0.1 0 0.2-0.1l0.3-0.5c0.1-0.2 0-0.3-0.2-0.3h-6q-0.1 0-0.2 0.1l-0.3 0.5c-0.1 0.1 0 0.3 0.2 0.3h3.1c0.6 0 1.2 0.4 1.4 1h-4.2q-0.1 0-0.2 0.1l-0.3 0.4c-0.1 0.2 0 0.4 0.2 0.4h4.5c-0.2 0.6-0.7 1-1.4 1h-3.2c-0.2 0-0.2 0.1-0.2 0.2v0.6q0 0.1 0 0.2l4.5 4.3h0.8c0.2 0 0.3-0.2 0.2-0.4l-4.3-4h2.2c1.1 0 2.1-0.8 2.3-1.9h0.6q0.1 0 0.2-0.1l0.3-0.5c0.1-0.2 0-0.3-0.2-0.3h-0.9q-0.1-0.6-0.4-1z"/>
								<path id="Layer" fill-rule="evenodd" class="s8" d="m230.9 159.8q-0.1-0.1 0-0.2l0.3-0.4q0.1-0.1 0.2-0.1h4.1q0.1 0 0.1 0.1h-4.2q-0.1 0-0.2 0.1l-0.3 0.5q0 0 0 0zm0-1.9q-0.1-0.1 0-0.1l0.3-0.5q0.1-0.1 0.2-0.1h6c0.2 0 0.3 0.1 0.2 0.2q0-0.1-0.2-0.1h-6q-0.1 0-0.2 0.1l-0.3 0.5q0 0 0 0zm6.7 1.4q0-0.1-0.2-0.1h-0.9q-0.1-0.6-0.4-1h0.1q0.2 0.4 0.3 0.9h0.9c0.2 0 0.3 0.1 0.2 0.2zm-6.8 1.9c0-0.1 0.1-0.2 0.2-0.2h3.2c0.6 0 1.1-0.4 1.3-0.9h0.1c-0.2 0.6-0.7 1-1.4 1h-3.2c-0.1 0-0.2 0.1-0.2 0.2zm5.5 4.8q0.1 0.1 0 0.2 0 0 0-0.1l-4.3-4h0.2z"/>
							</g>
						</g>
						<path id="Layer" class="s9" d="m238.9 168.4c-5.7 0-10.3-4.6-10.3-10.3 0-2.4 0.9-4.7 2.3-6.5-4 1.4-6.9 5.2-6.9 9.7 0 5.7 4.6 10.4 10.3 10.4 3.2 0 6.1-1.5 8-3.8q-1.6 0.5-3.4 0.5z"/>
					</g>
					<g id="Layer">
						<g id="Layer">
							<g id="Layer">
								<path id="Layer" class="s4" d="m337.6 201.8c-5.5 5.5-14.2 5.5-19.6 0-5.4-5.4-5.4-14.1 0-19.5 5.4-5.5 14.1-5.5 19.6 0 5.4 5.4 5.4 14.1 0 19.5z"/>
								<path id="Layer" class="s5" d="m336.8 201.1c-5 5-13.1 5-18.1 0-5-5-5-13.1 0-18.1 5-5 13.1-5 18.1 0 5 5 5 13.1 0 18.1z"/>
								<g id="Layer">
									<path id="Layer" fill-rule="evenodd" class="s6" d="m327.8 203.4c-6.1 0-11.1-4.9-11.1-11 0-6.1 5-11 11.1-11 6 0 11 4.9 11 11 0 6.1-5 11-11 11zm0-21.5c-5.8 0-10.6 4.7-10.6 10.5 0 5.8 4.8 10.5 10.6 10.5 5.8 0 10.5-4.7 10.5-10.5 0-5.8-4.7-10.5-10.5-10.5z"/>
								</g>
								<g id="Layer">
									<path id="Layer" fill-rule="evenodd" class="s4" d="m327.8 203.1c-6.1 0-11.1-5-11.1-11 0-6.1 5-11.1 11.1-11.1 6 0 11 5 11 11.1 0 6-5 11-11 11zm0-21.6c-5.8 0-10.6 4.7-10.6 10.6 0 5.8 4.8 10.5 10.6 10.5 5.8 0 10.5-4.7 10.5-10.5 0-5.9-4.7-10.6-10.5-10.6z"/>
								</g>
								<path id="Layer" class="s7" d="m327.8 180c6.9 0 12.5 5.5 12.7 12.4q0-0.2 0-0.3c0-7.1-5.7-12.8-12.7-12.8-7.1 0-12.8 5.7-12.8 12.8q0 0.1 0 0.3c0.2-6.9 5.8-12.4 12.8-12.4z"/>
							</g>
							<g id="Layer">
								<path id="Layer" class="s7" d="m332.3 189.6l-0.1-0.4-0.4 0.2h-1q-0.2-0.8-0.7-1.4h1.5q0.1 0 0.2-0.1l0.4-0.6q0.1-0.1 0-0.2v-0.4h-0.4v0.1h-8q-0.1 0-0.2 0.2l-0.2 0.3c-0.1 0-0.2 0-0.2 0v0.5c-0.1 0.1 0.1 0.3 0.2 0.3h4.3c0.8 0 1.6 0.5 1.8 1.3h-5.7q-0.1 0-0.2 0.1l-0.2 0.4h-0.2v0.4q-0.1 0 0 0.1c0 0.1 0.1 0.2 0.2 0.2h6.1c-0.2 0.8-1 1.4-1.8 1.4h-4.4c-0.2 0-0.3 0.1-0.3 0.2v0.9q0 0.1 0.1 0.2l6 5.8h0.1 1c0.2 0 0.3-0.1 0.3-0.3v-0.4l-0.4-0.1-5.4-5.1h3c1.5 0 2.8-1.1 3.1-2.6h0.8q0.1 0 0.2-0.1l0.4-0.7q0.1-0.1 0-0.2 0 0 0 0z"/>
								<path id="Layer" class="s4" d="m330.1 187.7h1.5q0.1-0.1 0.2-0.2l0.4-0.6c0.1-0.2 0-0.5-0.2-0.5h-8.2q-0.1 0.1-0.2 0.2l-0.4 0.6c-0.1 0.2 0 0.5 0.2 0.5h4.3c0.8 0 1.6 0.5 1.8 1.3h-5.7q-0.1 0-0.2 0.1l-0.4 0.7c-0.1 0.2 0 0.4 0.2 0.4h6.1c-0.2 0.8-1 1.4-1.8 1.4h-4.4c-0.2 0-0.3 0.1-0.3 0.2v0.9q0 0.1 0.1 0.2l6 5.8h0.1 1c0.3 0 0.4-0.3 0.2-0.5l-5.7-5.4h3c1.5 0 2.8-1.1 3.1-2.6h0.8q0.1 0 0.2-0.1l0.4-0.7c0.1-0.2 0-0.4-0.2-0.4h-1.2q-0.2-0.8-0.7-1.3z"/>
								<path id="Layer" fill-rule="evenodd" class="s8" d="m323.2 190q-0.1-0.1 0-0.2l0.4-0.7q0.1-0.1 0.2-0.1h5.6q0.1 0.1 0.1 0.2h-5.7q-0.1 0-0.2 0.1l-0.4 0.7q0 0 0 0zm0-2.5q-0.1-0.1 0-0.3l0.4-0.6q0.1-0.2 0.2-0.2h8.2c0.2 0 0.3 0.2 0.2 0.4q0-0.1-0.2-0.2h-8.2q-0.1 0-0.2 0.2l-0.4 0.6q0 0.1 0 0.1zm9 1.9q0-0.2-0.2-0.2h-1.2q-0.2-0.8-0.7-1.4h0.2q0.3 0.6 0.5 1.2h1.2c0.2 0 0.3 0.2 0.2 0.4zm-9.2 2.4c0-0.1 0.2-0.2 0.3-0.2h4.4c0.8 0 1.5-0.5 1.8-1.2-0.2 0.8-1 1.4-1.8 1.4h-4.4c-0.1 0-0.3 0.1-0.3 0.2zm7.4 6.4q0.1 0.2 0.1 0.3 0 0-0.1-0.1l-5.7-5.4h0.2z"/>
							</g>
						</g>
						<path id="Layer" class="s9" d="m334 201.6c-7.7 0-13.9-6.2-13.9-13.9 0-3.3 1.2-6.3 3.2-8.7-5.5 1.8-9.4 7-9.4 13.1 0 7.6 6.2 13.8 13.9 13.8 4.3 0 8.1-2 10.7-5.1q-2.2 0.8-4.5 0.8z"/>
					</g>
					<g id="Layer">
						<g id="Layer">
							<g id="Layer">
								<path id="Layer" class="s4" d="m294.4 209.1c-1.3 5.5-6.9 8.9-12.4 7.6-5.6-1.3-9-6.8-7.7-12.4 1.3-5.5 6.8-8.9 12.4-7.6 5.5 1.3 9 6.8 7.7 12.4z"/>
								<path id="Layer" class="s5" d="m293.6 208.9c-1.2 5.1-6.3 8.3-11.5 7.1-5.1-1.2-8.2-6.4-7-11.5 1.2-5.1 6.3-8.3 11.4-7.1 5.1 1.2 8.3 6.4 7.1 11.5z"/>
								<g id="Layer">
									<path id="Layer" fill-rule="evenodd" class="s6" d="m284.3 215.2c-4.5 0-8.2-3.7-8.2-8.2 0-4.6 3.7-8.2 8.2-8.2 4.6 0 8.2 3.6 8.2 8.2 0 4.5-3.6 8.2-8.2 8.2zm0-16.1c-4.3 0-7.8 3.5-7.8 7.9 0 4.3 3.5 7.8 7.8 7.8 4.4 0 7.9-3.5 7.9-7.8 0-4.4-3.5-7.9-7.9-7.9z"/>
								</g>
								<g id="Layer">
									<path id="Layer" fill-rule="evenodd" class="s4" d="m284.3 214.9c-4.5 0-8.2-3.7-8.2-8.2 0-4.5 3.7-8.2 8.2-8.2 4.6 0 8.2 3.7 8.2 8.2 0 4.5-3.6 8.2-8.2 8.2zm0-16c-4.3 0-7.8 3.5-7.8 7.8 0 4.3 3.5 7.9 7.8 7.9 4.4 0 7.9-3.6 7.9-7.9 0-4.3-3.5-7.8-7.9-7.8z"/>
								</g>
								<path id="Layer" class="s7" d="m284.3 197.7c5.2 0 9.4 4.1 9.5 9.3q0-0.2 0-0.3c0-5.2-4.2-9.5-9.5-9.5-5.2 0-9.5 4.3-9.5 9.5q0 0.1 0 0.3c0.2-5.2 4.4-9.3 9.5-9.3z"/>
							</g>
							<g id="Layer">
								<path id="Layer" class="s7" d="m287.7 204.9v-0.3l-0.4 0.1h-0.7q-0.2-0.5-0.5-1h1q0.2 0 0.2-0.1l0.3-0.5q0.1 0 0.1-0.1v-0.2h-0.4-5.9q-0.1 0-0.2 0.1l-0.1 0.3q-0.2 0-0.2 0v0.3c0 0.1 0.1 0.2 0.2 0.2h3.2c0.6 0 1.1 0.4 1.3 1h-4.2q-0.1 0-0.2 0.1l-0.1 0.3h-0.2v0.3q0 0 0 0.1c0 0 0.1 0.1 0.2 0.1h4.5c-0.1 0.6-0.7 1-1.3 1h-3.3c-0.1 0-0.2 0.1-0.2 0.3v0.6q0 0.1 0.1 0.2l4.4 4.2 0.1 0.1h0.8c0.1 0 0.2-0.1 0.2-0.3v-0.2l-0.3-0.1-4.1-3.9h2.3c1.1 0 2.1-0.8 2.3-1.9h0.6q0.1 0 0.1-0.1l0.3-0.5q0.1 0 0.1-0.1z"/>
								<path id="Layer" class="s4" d="m286.1 203.4h1q0.2 0 0.2-0.1l0.3-0.4c0.1-0.2 0-0.4-0.1-0.4h-6.1q-0.1 0-0.2 0.1l-0.3 0.5c-0.1 0.2 0 0.3 0.2 0.3h3.1c0.7 0 1.2 0.4 1.4 1h-4.2q-0.1 0-0.2 0.1l-0.3 0.5c-0.1 0.2 0 0.3 0.2 0.3h4.5c-0.1 0.6-0.7 1.1-1.3 1.1h-3.3c-0.1 0-0.2 0-0.2 0.2v0.6q0 0.1 0.1 0.2l4.4 4.2 0.1 0.1h0.8c0.1 0 0.2-0.3 0.1-0.4l-4.3-4h2.3c1.1 0 2.1-0.9 2.3-2h0.5q0.2 0 0.2-0.1l0.3-0.5c0.1-0.1 0-0.3-0.1-0.3h-0.9q-0.2-0.5-0.5-1z"/>
								<path id="Layer" fill-rule="evenodd" class="s8" d="m280.9 205.2q0-0.1 0-0.2l0.3-0.5q0.1-0.1 0.2-0.1h4.2q0 0.1 0 0.2h-4.2q-0.1 0-0.2 0.1l-0.3 0.5q0 0 0 0zm0-1.9q0-0.1 0-0.2l0.3-0.5q0.1-0.1 0.2-0.1h6.1c0.1 0 0.2 0.2 0.1 0.3q0-0.1-0.1-0.1h-6.1q-0.1 0-0.2 0.1l-0.3 0.5q0 0 0 0zm6.7 1.4q0-0.1-0.1-0.1h-0.9q-0.2-0.6-0.5-1h0.1q0.3 0.4 0.4 0.8h0.9c0.1 0 0.2 0.2 0.1 0.3zm-6.8 1.9c0-0.2 0.1-0.2 0.2-0.2h3.2c0.6 0 1.2-0.4 1.4-0.9-0.1 0.6-0.7 1-1.4 1h-3.2c-0.1 0-0.2 0.1-0.2 0.2zm5.5 4.8q0.1 0.1 0 0.2 0-0.1 0-0.1l-4.3-4.1h0.2z"/>
							</g>
						</g>
						<path id="Layer" class="s9" d="m288.9 213.8c-5.7 0-10.3-4.6-10.3-10.3 0-2.5 0.9-4.8 2.4-6.5-4.1 1.4-7 5.2-7 9.7 0 5.7 4.6 10.3 10.3 10.3 3.2 0 6.1-1.4 8-3.7q-1.6 0.5-3.4 0.5z"/>
					</g>
					<g id="Layer">
						<g id="Layer">
							<g id="Layer">
								<path id="Layer" class="s4" d="m181.7 193.9c-5.7 0-10.3-4.6-10.3-10.3 0-5.7 4.6-10.3 10.3-10.3 5.7 0 10.3 4.6 10.3 10.3 0 5.7-4.6 10.3-10.3 10.3z"/>
								<path id="Layer" class="s5" d="m181.7 193.1c-5.3 0-9.5-4.3-9.5-9.5 0-5.3 4.2-9.5 9.5-9.5 5.2 0 9.5 4.2 9.5 9.5 0 5.2-4.3 9.5-9.5 9.5z"/>
								<g id="Layer">
									<path id="Layer" fill-rule="evenodd" class="s6" d="m181.7 192.1c-4.6 0-8.2-3.7-8.2-8.3 0-4.5 3.6-8.2 8.2-8.2 4.5 0 8.2 3.7 8.2 8.2 0 4.6-3.7 8.3-8.2 8.3zm0-16.1c-4.4 0-7.9 3.5-7.9 7.8 0 4.4 3.5 7.9 7.9 7.9 4.3 0 7.8-3.5 7.8-7.9 0-4.3-3.5-7.8-7.8-7.8z"/>
								</g>
								<g id="Layer">
									<path id="Layer" fill-rule="evenodd" class="s4" d="m181.7 191.8c-4.6 0-8.2-3.7-8.2-8.2 0-4.5 3.6-8.2 8.2-8.2 4.5 0 8.2 3.7 8.2 8.2 0 4.5-3.7 8.2-8.2 8.2zm0-16.1c-4.4 0-7.9 3.5-7.9 7.9 0 4.3 3.5 7.8 7.9 7.8 4.3 0 7.8-3.5 7.8-7.8 0-4.4-3.5-7.9-7.8-7.9z"/>
								</g>
								<path id="Layer" class="s7" d="m181.7 174.6c5.1 0 9.3 4.1 9.5 9.2q0-0.1 0-0.2c0-5.3-4.3-9.5-9.5-9.5-5.3 0-9.5 4.2-9.5 9.5q0 0.1 0 0.2c0.1-5.1 4.3-9.2 9.5-9.2z"/>
							</g>
							<g id="Layer">
								<path id="Layer" class="s7" d="m185 181.8v-0.3l-0.3 0.1h-0.8q-0.1-0.6-0.5-1h1.1q0.1 0 0.2-0.1l0.3-0.5q0 0 0-0.1v-0.3h-0.3v0.1h-6q-0.1 0-0.1 0.1l-0.2 0.2q-0.1 0-0.2 0v0.4c0 0.1 0.1 0.2 0.2 0.2h3.2c0.6 0 1.2 0.4 1.4 1h-4.3q-0.1 0-0.1 0.1l-0.2 0.2-0.2 0.1v0.2q0 0.1 0 0.1c0.1 0.1 0.1 0.2 0.2 0.2h4.6c-0.2 0.6-0.8 1-1.4 1h-3.3c-0.1 0-0.2 0.1-0.2 0.2v0.7q0 0.1 0.1 0.1l4.5 4.3h0.8c0.1 0 0.2-0.1 0.2-0.2v-0.3l-0.3-0.1-4-3.8h2.2c1.1 0 2.1-0.8 2.3-1.9h0.6q0.1 0 0.2-0.1l0.3-0.5q0-0.1 0-0.1z"/>
								<path id="Layer" class="s4" d="m183.4 180.3h1.1q0.1 0 0.2-0.1l0.3-0.5c0.1-0.1 0-0.3-0.2-0.3h-6.1q-0.1 0-0.1 0.1l-0.3 0.5c-0.1 0.1 0 0.3 0.1 0.3h3.2c0.6 0 1.2 0.4 1.4 1h-4.3q-0.1 0-0.1 0.1l-0.3 0.5c-0.1 0.1 0 0.3 0.1 0.3h4.6c-0.2 0.6-0.8 1-1.4 1h-3.3c-0.1 0-0.2 0.1-0.2 0.2v0.7q0 0.1 0.1 0.1l4.5 4.3h0.8c0.2 0 0.3-0.2 0.1-0.3l-4.2-4.1h2.2c1.1 0 2.1-0.8 2.3-1.9h0.6q0.1 0 0.2-0.1l0.3-0.5c0.1-0.1 0-0.3-0.2-0.3h-0.9q-0.1-0.6-0.5-1z"/>
								<path id="Layer" fill-rule="evenodd" class="s8" d="m178.2 182.1q0-0.1 0.1-0.2l0.3-0.5q0-0.1 0.1-0.1h4.2q0 0.1 0.1 0.1h-4.3q-0.1 0-0.1 0.1l-0.3 0.5q0 0-0.1 0.1zm0-1.9q0-0.1 0.1-0.2l0.3-0.5q0-0.1 0.1-0.1h6.1c0.2 0 0.2 0.2 0.2 0.3q-0.1-0.1-0.2-0.2h-6.1q-0.1 0.1-0.1 0.1l-0.3 0.5q0 0.1-0.1 0.1zm6.8 1.4q-0.1-0.1-0.2-0.2h-0.9q-0.1-0.5-0.5-1h0.1q0.3 0.4 0.4 0.9h0.9c0.2 0 0.2 0.1 0.2 0.3zm-6.9 2v-0.2c0-0.1 0.1-0.2 0.2-0.2h3.3c0.6 0 1.1-0.3 1.3-0.9h0.1c-0.2 0.6-0.8 1.1-1.4 1.1h-3.3c-0.1 0-0.2 0.1-0.2 0.2zm5.5 4.6q0.1 0.1 0.1 0.2 0 0-0.1-0.1l-4.2-4h0.1z"/>
							</g>
						</g>
						<path id="Layer" class="s9" d="m186.3 190.7c-5.7 0-10.3-4.6-10.3-10.3 0-2.5 0.8-4.8 2.3-6.6-4 1.4-6.9 5.3-6.9 9.8 0 5.7 4.6 10.3 10.3 10.3 3.2 0 6.1-1.5 7.9-3.8q-1.5 0.6-3.3 0.6z"/>
					</g>
					<g id="Layer">
						<g id="Layer">
							<g id="Layer">
								<path id="Layer" class="s4" d="m162.8 101.3c-1.3 5.5-6.8 9-12.3 7.8-5.6-1.3-9.1-6.8-7.8-12.4 1.2-5.5 6.7-9 12.3-7.8 5.5 1.3 9 6.8 7.8 12.4z"/>
								<path id="Layer" class="s5" d="m162 101.1c-1.1 5.1-6.2 8.3-11.3 7.2-5.2-1.2-8.4-6.2-7.2-11.4 1.1-5.1 6.2-8.3 11.3-7.2 5.2 1.2 8.4 6.3 7.2 11.4z"/>
								<g id="Layer">
									<path id="Layer" fill-rule="evenodd" class="s6" d="m152.7 107.5c-4.5 0-8.2-3.7-8.2-8.2 0-4.6 3.7-8.2 8.2-8.2 4.6 0 8.2 3.6 8.2 8.2 0 4.5-3.6 8.2-8.2 8.2zm0-16.1c-4.3 0-7.8 3.5-7.8 7.9 0 4.3 3.5 7.8 7.8 7.8 4.4 0 7.9-3.5 7.9-7.8 0-4.4-3.5-7.9-7.9-7.9z"/>
								</g>
								<g id="Layer">
									<path id="Layer" fill-rule="evenodd" class="s4" d="m152.7 107.2c-4.5 0-8.2-3.7-8.2-8.2 0-4.5 3.7-8.2 8.2-8.2 4.6 0 8.2 3.7 8.2 8.2 0 4.5-3.6 8.2-8.2 8.2zm0-16.1c-4.3 0-7.8 3.6-7.8 7.9 0 4.3 3.5 7.9 7.8 7.9 4.4 0 7.9-3.6 7.9-7.9 0-4.3-3.5-7.9-7.9-7.9z"/>
								</g>
								<path id="Layer" class="s7" d="m152.7 90c5.2 0 9.4 4.1 9.5 9.3q0-0.2 0-0.3c0-5.3-4.2-9.5-9.5-9.5-5.2 0-9.5 4.2-9.5 9.5q0 0.1 0 0.3c0.2-5.2 4.4-9.3 9.5-9.3z"/>
							</g>
							<g id="Layer">
								<path id="Layer" class="s7" d="m156.1 97.2v-0.3l-0.4 0.1h-0.7q-0.1-0.5-0.5-1h1.1q0.1 0 0.1-0.1l0.3-0.5q0.1 0 0.1-0.1v-0.3h-0.4v0.1h-5.9q-0.1 0-0.2 0.1l-0.1 0.2q-0.2 0.1-0.2 0.1v0.3c0 0.1 0.1 0.2 0.2 0.2h3.2c0.6 0 1.1 0.4 1.3 1h-4.2q-0.1 0-0.2 0.1l-0.1 0.3h-0.2v0.3q0 0 0 0c0 0.1 0.1 0.2 0.2 0.2h4.5c-0.1 0.6-0.7 1-1.3 1h-3.3c-0.1 0-0.2 0.1-0.2 0.2v0.7q0 0.1 0.1 0.1l4.4 4.3 0.1 0.1h0.8c0.1 0 0.2-0.2 0.2-0.3v-0.2l-0.3-0.1-4-3.9h2.2c1.1 0 2.1-0.8 2.3-1.9h0.6q0.1 0 0.1-0.1l0.3-0.5q0.1 0 0.1-0.1z"/>
								<path id="Layer" class="s4" d="m154.5 95.7h1.1q0.1 0 0.1-0.1l0.3-0.5c0.1-0.1 0-0.3-0.1-0.3h-6.1q-0.1 0-0.2 0.1l-0.3 0.5c-0.1 0.2 0 0.3 0.2 0.3h3.2c0.6 0 1.1 0.4 1.3 1h-4.2q-0.1 0-0.2 0.1l-0.3 0.5c-0.1 0.1 0 0.3 0.2 0.3h4.5c-0.1 0.6-0.7 1-1.3 1h-3.3c-0.1 0-0.2 0.1-0.2 0.2v0.7q0 0.1 0.1 0.2l4.4 4.2 0.1 0.1h0.8c0.1 0 0.2-0.3 0.1-0.4l-4.2-4.1h2.2c1.1 0 2.1-0.8 2.3-1.9h0.6q0.1 0 0.1-0.1l0.3-0.5c0.1-0.1 0-0.3-0.1-0.3h-0.9q-0.1-0.5-0.5-1z"/>
								<path id="Layer" fill-rule="evenodd" class="s8" d="m149.3 97.5q0-0.1 0-0.2l0.3-0.5q0.1-0.1 0.2-0.1h4.2q0 0.1 0 0.2h-4.2q-0.1 0-0.2 0.1l-0.3 0.4q0 0.1 0 0.1zm0-1.9q0-0.1 0-0.2l0.3-0.5q0.1-0.1 0.2-0.1h6.1c0.1 0 0.2 0.2 0.2 0.3q-0.1-0.1-0.2-0.1h-6.1q-0.1 0-0.2 0.1l-0.3 0.5q0 0 0 0zm6.8 1.4q-0.1-0.1-0.2-0.1h-0.9q-0.1-0.6-0.5-1h0.1q0.3 0.4 0.4 0.8h0.9c0.1 0 0.2 0.2 0.2 0.3zm-6.9 2v-0.2c0-0.1 0.1-0.2 0.2-0.2h3.3c0.5 0 1.1-0.3 1.3-0.8-0.1 0.6-0.7 1-1.3 1h-3.3c-0.1 0-0.2 0.1-0.2 0.2zm5.5 4.6q0.1 0.1 0 0.2 0 0 0-0.1l-4.2-4h0.1z"/>
							</g>
						</g>
						<path id="Layer" class="s9" d="m157.3 106.1c-5.7 0-10.3-4.6-10.3-10.3 0-2.5 0.9-4.8 2.4-6.5-4.1 1.3-7 5.2-7 9.7 0 5.7 4.6 10.3 10.3 10.3 3.2 0 6.1-1.5 8-3.8q-1.6 0.6-3.4 0.6z"/>
					</g>
					<g id="Layer">
						<g id="Layer">
							<g id="Layer">
								<path id="Layer" class="s4" d="m161.4 177.5c-5.9 5.8-15.5 5.8-21.4 0-5.9-5.9-5.9-15.5 0-21.4 5.9-5.9 15.5-5.9 21.4 0 5.9 5.9 5.9 15.5 0 21.4z"/>
								<path id="Layer" class="s5" d="m161.1 176c-5.1 5.8-13.9 6.3-19.6 1.2-5.8-5.1-6.3-13.9-1.2-19.7 5.1-5.7 13.9-6.2 19.6-1.1 5.8 5.1 6.3 13.9 1.2 19.6z"/>
								<g id="Layer">
									<path id="Layer" fill-rule="evenodd" class="s6" d="m150.7 179.2c-6.6 0-12-5.4-12-12 0-6.7 5.4-12 12-12 6.6 0 12 5.3 12 12 0 6.6-5.4 12-12 12zm0-23.5c-6.3 0-11.5 5.1-11.5 11.5 0 6.3 5.2 11.5 11.5 11.5 6.3 0 11.5-5.2 11.5-11.5 0-6.4-5.2-11.5-11.5-11.5z"/>
								</g>
								<g id="Layer">
									<path id="Layer" fill-rule="evenodd" class="s4" d="m150.7 178.8c-6.6 0-12-5.4-12-12 0-6.6 5.4-12 12-12 6.6 0 12 5.4 12 12 0 6.6-5.4 12-12 12zm0-23.5c-6.3 0-11.5 5.2-11.5 11.5 0 6.3 5.2 11.5 11.5 11.5 6.3 0 11.5-5.2 11.5-11.5 0-6.3-5.2-11.5-11.5-11.5z"/>
								</g>
								<path id="Layer" class="s7" d="m150.7 153.6c7.6 0 13.7 6.1 13.9 13.6q0-0.2 0-0.4c0-7.7-6.2-13.9-13.9-13.9-7.7 0-13.9 6.2-13.9 13.9q0 0.2 0 0.4c0.2-7.5 6.3-13.6 13.9-13.6z"/>
							</g>
							<g id="Layer">
								<path id="Layer" class="s7" d="m155.6 164.2v-0.5l-0.5 0.2h-1.1q-0.2-0.8-0.7-1.5h1.5q0.2 0 0.3-0.1l0.4-0.7q0.1-0.1 0.1-0.2v-0.4h-0.5v0.1h-8.7q-0.1 0-0.2 0.2l-0.2 0.3c-0.2 0-0.3 0-0.3 0v0.5c0 0.2 0.1 0.3 0.3 0.3h4.6c0.9 0 1.7 0.6 2 1.5h-6.2q-0.1 0-0.2 0.1l-0.3 0.4h-0.2v0.4q0 0.1 0 0.2c0 0.1 0.1 0.2 0.3 0.2h6.6c-0.3 0.9-1.1 1.5-2 1.5h-4.8c-0.1 0-0.3 0.1-0.3 0.3v1q0 0.1 0.1 0.2l6.6 6.2v0.1h1.2c0.2 0 0.3-0.2 0.3-0.3v-0.5l-0.5-0.1-5.8-5.6h3.2c1.6 0 3.1-1.2 3.4-2.8h0.8q0.2 0 0.3-0.1l0.4-0.8q0.1-0.1 0.1-0.1z"/>
								<path id="Layer" class="s4" d="m153.3 162h1.5q0.2 0 0.3-0.1l0.4-0.8c0.2-0.2 0-0.4-0.2-0.4h-8.9q-0.1 0-0.2 0.1l-0.5 0.7c-0.1 0.2 0 0.5 0.3 0.5h4.6c0.9 0 1.7 0.6 2 1.4h-6.2q-0.1 0.1-0.2 0.2l-0.5 0.7c-0.1 0.2 0 0.5 0.3 0.5h6.6c-0.3 0.8-1.1 1.5-2 1.5h-4.8c-0.1 0-0.3 0.1-0.3 0.3v0.9q0 0.1 0.1 0.2l6.6 6.3h1.2c0.2 0 0.4-0.3 0.2-0.5l-6.2-5.9h3.2c1.6 0 3.1-1.2 3.4-2.8h0.8q0.2 0 0.3-0.2l0.4-0.7c0.2-0.2 0-0.5-0.2-0.5h-1.3q-0.2-0.8-0.7-1.4z"/>
								<path id="Layer" fill-rule="evenodd" class="s8" d="m145.7 164.6q-0.1-0.2 0-0.3l0.5-0.7q0.1-0.1 0.2-0.2h6.1q0.1 0.1 0.1 0.3h-6.2q-0.1 0-0.2 0.1l-0.5 0.7q0 0 0 0.1zm0-2.8q-0.1-0.1 0-0.3l0.5-0.7q0.1-0.1 0.2-0.1h8.9c0.2 0 0.3 0.2 0.3 0.4-0.1-0.1-0.2-0.2-0.3-0.2h-8.9q-0.1 0-0.2 0.1l-0.5 0.8q0 0 0 0zm9.9 2c-0.1-0.1-0.2-0.1-0.3-0.1h-1.3q-0.2-0.9-0.7-1.5h0.1q0.4 0.6 0.6 1.2h1.3c0.2 0 0.3 0.3 0.3 0.4zm-10.1 3v-0.2c0-0.2 0.2-0.3 0.3-0.3h4.8c0.8 0 1.6-0.6 1.9-1.3h0.1c-0.3 0.8-1.1 1.5-2 1.5h-4.8c-0.1 0-0.3 0.1-0.3 0.3zm8.1 6.7q0.1 0.2 0.1 0.3-0.1 0-0.1-0.1l-6.2-5.9h0.2z"/>
							</g>
						</g>
						<path id="Layer" class="s9" d="m157.4 177.2c-8.3 0-15-6.8-15-15.1 0-3.6 1.2-7 3.4-9.6-5.9 2.1-10.2 7.7-10.2 14.3 0 8.3 6.8 15.1 15.1 15.1 4.7 0 8.9-2.2 11.7-5.5-1.6 0.5-3.2 0.8-5 0.8z"/>
					</g>
					<g id="Layer">
						<g id="Layer">
							<g id="Layer">
								<path id="Layer" class="s4" d="m161.8 137.6c-1.3 5.5-6.8 8.9-12.4 7.6-5.5-1.3-8.9-6.8-7.6-12.4 1.3-5.5 6.8-9 12.4-7.6 5.5 1.3 8.9 6.8 7.6 12.4z"/>
								<path id="Layer" class="s5" d="m161.1 137.4c-1.2 5.1-6.3 8.3-11.5 7.1-5.1-1.2-8.3-6.4-7.1-11.5 1.2-5.1 6.4-8.3 11.5-7.1 5.1 1.2 8.3 6.3 7.1 11.5z"/>
								<g id="Layer">
									<path id="Layer" fill-rule="evenodd" class="s6" d="m151.8 143.7c-4.5 0-8.2-3.7-8.2-8.2 0-4.6 3.7-8.2 8.2-8.2 4.5 0 8.2 3.6 8.2 8.2 0 4.5-3.7 8.2-8.2 8.2zm0-16.1c-4.3 0-7.8 3.5-7.8 7.9 0 4.3 3.5 7.8 7.8 7.8 4.3 0 7.9-3.5 7.9-7.8 0-4.4-3.6-7.9-7.9-7.9z"/>
								</g>
								<g id="Layer">
									<path id="Layer" fill-rule="evenodd" class="s4" d="m151.8 143.4c-4.5 0-8.2-3.7-8.2-8.2 0-4.5 3.7-8.2 8.2-8.2 4.5 0 8.2 3.7 8.2 8.2 0 4.5-3.7 8.2-8.2 8.2zm0-16.1c-4.3 0-7.8 3.6-7.8 7.9 0 4.3 3.5 7.9 7.8 7.9 4.3 0 7.9-3.6 7.9-7.9 0-4.3-3.6-7.9-7.9-7.9z"/>
								</g>
								<path id="Layer" class="s7" d="m151.8 126.2c5.2 0 9.4 4.1 9.5 9.3q0-0.2 0-0.3c0-5.3-4.2-9.5-9.5-9.5-5.2 0-9.5 4.2-9.5 9.5q0 0.1 0 0.3c0.1-5.2 4.3-9.3 9.5-9.3z"/>
							</g>
							<g id="Layer">
								<path id="Layer" class="s7" d="m155.1 133.4v-0.3l-0.3 0.1h-0.8q-0.1-0.5-0.4-1h1q0.1 0 0.2-0.1l0.3-0.5q0 0 0-0.1v-0.3h-0.3v0.1h-5.9q-0.1 0-0.2 0.1l-0.1 0.2q-0.2 0.1-0.2 0.1v0.3c0 0.1 0 0.2 0.2 0.2h3.1c0.7 0 1.2 0.4 1.4 1h-4.2q-0.1 0-0.2 0.1l-0.1 0.3h-0.2v0.3q0 0 0 0c0 0.1 0.1 0.2 0.2 0.2h4.5c-0.2 0.6-0.7 1-1.4 1h-3.2c-0.1 0-0.2 0.1-0.2 0.2v0.7q0 0.1 0 0.1l4.5 4.3h0.8c0.2 0 0.2-0.1 0.2-0.2v-0.3h-0.3l-4-3.9h2.2c1.2 0 2.1-0.8 2.3-1.9h0.6q0.1 0 0.2-0.1l0.3-0.5q0 0 0-0.1z"/>
								<path id="Layer" class="s4" d="m153.6 131.9h1q0.1 0 0.2-0.1l0.3-0.5c0.1-0.1 0-0.3-0.2-0.3h-6q-0.1 0-0.2 0.1l-0.3 0.5c-0.1 0.1 0 0.3 0.2 0.3h3.1c0.7 0 1.2 0.4 1.4 1h-4.2q-0.1 0-0.2 0.1l-0.3 0.5c-0.1 0.1 0 0.3 0.2 0.3h4.5c-0.2 0.6-0.7 1-1.4 1h-3.2c-0.1 0-0.2 0.1-0.2 0.2v0.7q0 0.1 0 0.1l4.5 4.3v0.1h0.8c0.2 0 0.3-0.3 0.2-0.4l-4.3-4.1h2.2c1.2 0 2.1-0.8 2.3-1.9h0.6q0.1 0 0.2-0.1l0.3-0.5c0.1-0.1 0-0.3-0.2-0.3h-0.9q-0.1-0.5-0.4-1z"/>
								<path id="Layer" fill-rule="evenodd" class="s8" d="m148.4 133.7q-0.1-0.1 0-0.2l0.3-0.5q0.1-0.1 0.2-0.1h4.1q0.1 0.1 0.1 0.2h-4.2q-0.1 0-0.2 0.1l-0.3 0.4q0 0.1 0 0.1zm0-1.9q-0.1-0.1 0-0.2l0.3-0.5q0.1-0.1 0.2-0.1h6c0.2 0 0.3 0.2 0.2 0.3q0-0.1-0.2-0.1h-6q-0.1 0-0.2 0.1l-0.3 0.5q0 0 0 0zm6.7 1.4q0-0.1-0.2-0.1h-0.9q-0.1-0.6-0.4-1h0.1q0.2 0.4 0.3 0.8h0.9c0.2 0 0.3 0.2 0.2 0.3zm-6.8 2v-0.2c0-0.1 0.1-0.2 0.2-0.2h3.2c0.6 0 1.1-0.3 1.4-0.8-0.2 0.6-0.7 1-1.4 1h-3.2c-0.1 0-0.2 0.1-0.2 0.2zm5.5 4.6q0.1 0.1 0 0.2 0 0 0-0.1l-4.3-4h0.2z"/>
							</g>
						</g>
						<path id="Layer" class="s9" d="m156.4 142.3c-5.7 0-10.3-4.6-10.3-10.3 0-2.5 0.9-4.8 2.3-6.5-4 1.3-6.9 5.2-6.9 9.7 0 5.7 4.6 10.3 10.3 10.3 3.2 0 6.1-1.5 8-3.8q-1.6 0.6-3.4 0.6z"/>
					</g>
					<g id="Layer">
						<g id="Layer">
							<g id="Layer">
								<path id="Layer" class="s4" d="m194.7 103.5c-5.5 5.6-14.4 5.6-19.9 0-5.5-5.5-5.5-14.4 0-19.9 5.5-5.5 14.4-5.5 19.9 0 5.5 5.5 5.5 14.4 0 19.9z"/>
								<path id="Layer" class="s5" d="m193.9 102.8c-5 5.1-13.3 5.1-18.3 0-5.1-5.1-5.1-13.3 0-18.4 5-5.1 13.3-5.1 18.3 0 5.1 5.1 5.1 13.3 0 18.4z"/>
								<g id="Layer">
									<path id="Layer" fill-rule="evenodd" class="s6" d="m184.8 105.2c-6.2 0-11.3-5.1-11.3-11.3 0-6.1 5.1-11.2 11.3-11.2 6.1 0 11.2 5.1 11.2 11.3 0 6.1-5.1 11.2-11.2 11.2zm0-22c-6 0-10.8 4.8-10.8 10.8 0 5.9 4.8 10.7 10.8 10.7 5.9 0 10.7-4.8 10.7-10.8 0-5.9-4.8-10.7-10.7-10.7z"/>
								</g>
								<g id="Layer">
									<path id="Layer" fill-rule="evenodd" class="s4" d="m184.8 104.8c-6.2 0-11.3-5-11.3-11.2 0-6.2 5.1-11.2 11.3-11.2 6.1 0 11.2 5 11.2 11.2 0 6.2-5.1 11.2-11.2 11.2zm0-21.9c-6 0-10.8 4.8-10.8 10.7 0 5.9 4.8 10.7 10.8 10.7 5.9 0 10.7-4.8 10.7-10.7 0-5.9-4.8-10.7-10.7-10.7z"/>
								</g>
								<path id="Layer" class="s7" d="m184.8 81.3c7 0 12.7 5.6 12.9 12.6q0-0.1 0-0.3c0-7.2-5.8-13-12.9-13-7.2 0-13 5.8-13 13q0 0.2 0 0.3c0.2-7 5.9-12.6 13-12.6z"/>
							</g>
							<g id="Layer">
								<path id="Layer" class="s7" d="m189.3 91.1v-0.4l-0.4 0.2h-1.1q-0.1-0.8-0.6-1.4h1.4q0.2 0 0.2-0.1l0.5-0.7q0-0.1 0-0.1v-0.4h-0.5v0.1h-8q-0.2 0-0.3 0.1l-0.2 0.3c-0.1 0.1-0.2 0.1-0.2 0.1v0.4c0 0.2 0.1 0.3 0.2 0.3h4.4c0.8 0 1.6 0.6 1.8 1.4h-5.7q-0.2 0-0.3 0.1l-0.2 0.4h-0.2v0.4q0 0 0 0.1c0 0.1 0.1 0.2 0.2 0.2h6.3c-0.3 0.8-1.1 1.4-1.9 1.4h-4.5c-0.1 0-0.3 0.1-0.3 0.3v0.9q0 0.1 0.1 0.2l6.1 5.8 0.1 0.1h1.1c0.1 0 0.2-0.2 0.2-0.3v-0.4l-0.4-0.1-5.5-5.3h3.1c1.5 0 2.8-1.1 3.1-2.6h0.8q0.2 0 0.2-0.1l0.5-0.7q0-0.1 0-0.2 0 0 0 0z"/>
								<path id="Layer" class="s4" d="m187.2 89.1h1.4q0.2 0 0.2-0.1l0.5-0.7c0.1-0.2 0-0.4-0.3-0.4h-8.2q-0.2 0-0.3 0.1l-0.4 0.7c-0.1 0.2 0 0.4 0.2 0.4h4.4c0.8 0 1.6 0.6 1.8 1.4h-5.7q-0.2 0-0.3 0.1l-0.4 0.7c-0.1 0.2 0 0.4 0.2 0.4h6.3c-0.3 0.8-1.1 1.4-1.9 1.4h-4.5c-0.1 0-0.3 0.1-0.3 0.3v0.9q0 0.1 0.1 0.2l6.1 5.8 0.1 0.1h1.1c0.2 0 0.3-0.4 0.1-0.5l-5.8-5.6h3.1c1.5 0 2.8-1.1 3.1-2.6h0.8q0.2 0 0.2-0.1l0.5-0.7c0.1-0.2 0-0.4-0.3-0.4h-1.2q-0.1-0.8-0.6-1.4z"/>
								<path id="Layer" fill-rule="evenodd" class="s8" d="m180.1 91.5q-0.1-0.1 0-0.2l0.4-0.7q0.1-0.1 0.3-0.1h5.7q0 0.1 0 0.2h-5.7q-0.2 0-0.3 0.1l-0.4 0.7q0 0 0 0zm0-2.6q-0.1-0.1 0-0.2l0.4-0.7q0.1-0.1 0.3-0.1h8.2c0.2 0 0.4 0.2 0.3 0.4q-0.1-0.2-0.3-0.2h-8.2q-0.2 0-0.3 0.1l-0.4 0.7q0 0 0 0zm9.2 2q-0.1-0.2-0.3-0.2h-1.2q-0.1-0.8-0.6-1.4h0.1q0.4 0.5 0.5 1.2h1.2c0.2 0 0.4 0.2 0.3 0.4zm-9.4 2.7v-0.2c0-0.2 0.2-0.3 0.3-0.3h4.5c0.8 0 1.5-0.5 1.8-1.2h0.1c-0.3 0.8-1.1 1.4-1.9 1.4h-4.5c-0.1 0-0.3 0.1-0.3 0.3zm0 0q0 0 0 0zm7.5 6.3q0.2 0.1 0.1 0.3 0-0.1-0.1-0.1l-5.8-5.6h0.3z"/>
							</g>
						</g>
						<path id="Layer" class="s9" d="m191 103.3c-7.7 0-14-6.3-14-14.1 0-3.4 1.2-6.5 3.2-8.9-5.6 1.9-9.5 7.1-9.5 13.3 0 7.8 6.3 14.1 14.1 14.1 4.3 0 8.3-2 10.8-5.2-1.4 0.5-2.9 0.8-4.6 0.8z"/>
					</g>
					<g id="Layer">
						<g id="Layer">
							<g id="Layer">
								<path id="Layer" class="s4" d="m228.2 116.9c-1.3 5.6-6.9 9-12.4 7.7-5.6-1.3-9-6.8-7.7-12.4 1.3-5.5 6.8-9 12.4-7.7 5.5 1.3 9 6.9 7.7 12.4z"/>
								<path id="Layer" class="s5" d="m227.5 116.1c-0.8 5.2-5.7 8.7-10.9 7.9-5.2-0.9-8.7-5.8-7.9-11 0.9-5.1 5.8-8.7 11-7.8 5.1 0.8 8.7 5.7 7.8 10.9z"/>
								<g id="Layer">
									<path id="Layer" fill-rule="evenodd" class="s6" d="m218.1 123c-4.5 0-8.2-3.6-8.2-8.2 0-4.5 3.7-8.2 8.2-8.2 4.6 0 8.2 3.7 8.2 8.2 0 4.6-3.6 8.2-8.2 8.2zm0-16c-4.3 0-7.8 3.5-7.8 7.8 0 4.4 3.5 7.9 7.8 7.9 4.4 0 7.9-3.5 7.9-7.9 0-4.3-3.5-7.8-7.9-7.8z"/>
								</g>
								<g id="Layer">
									<path id="Layer" fill-rule="evenodd" class="s4" d="m218.1 122.8c-4.5 0-8.2-3.7-8.2-8.2 0-4.6 3.7-8.2 8.2-8.2 4.6 0 8.2 3.6 8.2 8.2 0 4.5-3.6 8.2-8.2 8.2zm0-16.1c-4.3 0-7.8 3.5-7.8 7.9 0 4.3 3.5 7.8 7.8 7.8 4.4 0 7.9-3.5 7.9-7.8 0-4.4-3.5-7.9-7.9-7.9z"/>
								</g>
								<path id="Layer" class="s7" d="m218.1 105.6c5.2 0 9.4 4.1 9.5 9.2q0-0.1 0-0.2c0-5.3-4.2-9.5-9.5-9.5-5.2 0-9.5 4.2-9.5 9.5q0 0.1 0 0.2c0.2-5.1 4.4-9.2 9.5-9.2z"/>
							</g>
							<g id="Layer">
								<path id="Layer" class="s7" d="m221.5 112.8v-0.3l-0.4 0.1h-0.7q-0.2-0.6-0.5-1h1.1q0.1 0 0.1-0.1l0.3-0.5q0.1 0 0.1-0.1v-0.3h-0.4v0.1h-5.9q-0.1 0-0.2 0.1l-0.1 0.2q-0.2 0-0.2 0v0.4c0 0.1 0.1 0.2 0.2 0.2h3.2c0.6 0 1.1 0.4 1.3 1h-4.2q-0.1 0-0.2 0.1l-0.1 0.2h-0.2v0.3q0 0.1 0 0.1c0 0.1 0.1 0.2 0.2 0.2h4.5c-0.1 0.6-0.7 1-1.3 1h-3.3c-0.1 0-0.2 0.1-0.2 0.2v0.7q0 0.1 0.1 0.1l4.4 4.3h0.1 0.8c0.1 0 0.2-0.1 0.2-0.2v-0.3l-0.3-0.1-4.1-3.8h2.3c1.1 0 2.1-0.8 2.3-1.9h0.6q0.1 0 0.1-0.1l0.3-0.5q0.1-0.1 0.1-0.1z"/>
								<path id="Layer" class="s4" d="m219.9 111.3h1.1q0.1 0 0.1-0.1l0.3-0.5c0.1-0.1 0-0.3-0.1-0.3h-6.1q-0.1 0-0.2 0.1l-0.3 0.5c-0.1 0.1 0 0.3 0.2 0.3h3.2c0.6 0 1.1 0.4 1.3 1h-4.2q-0.1 0-0.2 0.1l-0.3 0.5c-0.1 0.1 0 0.3 0.2 0.3h4.5c-0.1 0.6-0.7 1-1.3 1h-3.3c-0.1 0-0.2 0.1-0.2 0.2v0.7q0 0.1 0.1 0.1l4.4 4.3h0.1 0.8c0.1 0 0.2-0.2 0.1-0.3l-4.3-4.1h2.3c1.1 0 2.1-0.8 2.3-1.9h0.6q0.1 0 0.1-0.1l0.3-0.5c0.1-0.1 0-0.3-0.1-0.3h-0.9q-0.2-0.6-0.5-1z"/>
								<path id="Layer" fill-rule="evenodd" class="s8" d="m214.7 113.1q0-0.1 0-0.2l0.3-0.5q0.1-0.1 0.2-0.1h4.2q0 0.1 0 0.1h-4.2q-0.1 0-0.2 0.1l-0.3 0.5q0 0 0 0.1zm0-1.9q0-0.1 0-0.2l0.3-0.5q0.1-0.1 0.2-0.1h6.1c0.1 0 0.2 0.1 0.2 0.3q-0.1-0.1-0.2-0.2h-6.1q-0.1 0-0.2 0.1l-0.3 0.5q0 0.1 0 0.1zm6.8 1.4q-0.1-0.2-0.2-0.2h-0.9q-0.2-0.5-0.5-1h0.1q0.3 0.4 0.4 0.9h0.9c0.1 0 0.2 0.1 0.2 0.3zm-6.9 2v-0.2c0-0.1 0.1-0.2 0.2-0.2h3.3c0.5 0 1.1-0.3 1.3-0.9-0.1 0.6-0.7 1.1-1.3 1.1h-3.3c-0.1 0-0.2 0-0.2 0.2zm0 0q0 0 0 0zm5.5 4.6q0.1 0.1 0 0.2 0 0 0-0.1l-4.3-4h0.2z"/>
							</g>
						</g>
						<path id="Layer" class="s9" d="m222.7 121.7c-5.7 0-10.3-4.6-10.3-10.3 0-2.5 0.9-4.8 2.4-6.6-4.1 1.4-7 5.3-7 9.8 0 5.7 4.6 10.3 10.3 10.3 3.2 0 6.1-1.5 8-3.8q-1.6 0.6-3.4 0.6z"/>
					</g>
					<g id="Layer">
						<g id="Layer">
							<g id="Layer">
								<path id="Layer" class="s4" d="m236 96c-10.5 0-18.9-8.4-18.9-18.9 0-10.4 8.4-18.9 18.9-18.9 10.5 0 18.9 8.5 18.9 18.9 0 10.5-8.4 18.9-18.9 18.9z"/>
								<path id="Layer" class="s5" d="m253.2 79.9c-1.5 9.5-10.5 16-20 14.5-9.5-1.6-16-10.5-14.4-20.1 1.5-9.5 10.5-15.9 20-14.4 9.5 1.5 16 10.5 14.4 20z"/>
								<g id="Layer">
									<path id="Layer" fill-rule="evenodd" class="s6" d="m236 92.7c-8.3 0-15.1-6.8-15.1-15.1 0-8.3 6.8-15.1 15.1-15.1 8.3 0 15.1 6.8 15.1 15.1 0 8.3-6.8 15.1-15.1 15.1zm0-29.5c-7.9 0-14.4 6.5-14.4 14.4 0 7.9 6.5 14.4 14.4 14.4 7.9 0 14.4-6.5 14.4-14.4 0-7.9-6.5-14.4-14.4-14.4z"/>
								</g>
								<g id="Layer">
									<path id="Layer" fill-rule="evenodd" class="s4" d="m236 92.2c-8.3 0-15.1-6.8-15.1-15.1 0-8.3 6.8-15 15.1-15 8.3 0 15.1 6.7 15.1 15 0 8.3-6.8 15.1-15.1 15.1zm0-29.5c-7.9 0-14.4 6.5-14.4 14.4 0 8 6.5 14.4 14.4 14.4 7.9 0 14.4-6.4 14.4-14.4 0-7.9-6.5-14.4-14.4-14.4z"/>
								</g>
								<path id="Layer" class="s7" d="m236 60.6c9.5 0 17.2 7.6 17.4 17q0.1-0.2 0.1-0.5c0-9.6-7.9-17.4-17.5-17.4-9.6 0-17.4 7.8-17.4 17.4q0 0.3 0 0.5c0.2-9.4 7.9-17 17.4-17z"/>
							</g>
							<g id="Layer">
								<path id="Layer" class="s7" d="m242.1 73.8v-0.5l-0.6 0.2h-1.4q-0.2-1-0.8-1.8h1.9q0.2-0.1 0.3-0.2l0.6-0.9q0-0.1 0-0.2v-0.5h-0.6v0.1h-10.9q-0.2 0-0.3 0.2l-0.2 0.4c-0.2 0-0.4 0-0.4 0v0.7c0 0.2 0.1 0.4 0.4 0.4h5.8c1.1 0 2.1 0.7 2.5 1.8h-7.8q-0.2 0-0.3 0.2l-0.3 0.4h-0.3v0.6q0 0.1 0 0.1c0 0.2 0.2 0.3 0.4 0.3h8.3c-0.3 1.1-1.4 1.9-2.5 1.9h-6c-0.2 0-0.4 0.2-0.4 0.4v1.2q0 0.1 0.1 0.3l8.2 7.8h0.1 1.5c0.2 0 0.3-0.1 0.3-0.3v-0.6l-0.5-0.1-7.4-7h4.1c2 0 3.8-1.5 4.2-3.6h1.1q0.2 0 0.3-0.1l0.6-0.9q0-0.2 0-0.3z"/>
								<path id="Layer" class="s4" d="m239.3 71.1h1.9q0.2 0 0.3-0.2l0.6-0.9c0.1-0.2-0.1-0.5-0.3-0.5h-11.2q-0.2 0-0.3 0.1l-0.5 0.9c-0.2 0.3 0 0.6 0.3 0.6h5.8c1.1 0 2.1 0.8 2.5 1.8h-7.8q-0.2 0-0.3 0.2l-0.6 0.9c-0.1 0.3 0.1 0.6 0.4 0.6h8.3c-0.3 1.1-1.4 1.9-2.5 1.9h-6c-0.2 0-0.4 0.1-0.4 0.3v1.2q0 0.2 0.1 0.3l8.2 7.8 0.1 0.1h1.5c0.3 0 0.5-0.4 0.2-0.6l-7.8-7.5h4.1c2 0 3.8-1.5 4.2-3.5h1.1q0.2 0 0.3-0.2l0.6-0.9c0.1-0.2-0.1-0.6-0.3-0.6h-1.7q-0.2-1-0.8-1.8z"/>
								<path id="Layer" fill-rule="evenodd" class="s8" d="m229.7 74.3q0-0.1 0.1-0.3l0.5-0.9q0.1-0.2 0.3-0.2h7.7q0 0.2 0.1 0.3h-7.8q-0.2 0-0.3 0.2l-0.5 0.9q-0.1 0-0.1 0zm0-3.4q0-0.2 0.1-0.4l0.5-0.9q0.1-0.1 0.3-0.1h11.2c0.2 0 0.4 0.2 0.3 0.5-0.1-0.2-0.2-0.3-0.3-0.3h-11.2q-0.2 0-0.3 0.2l-0.5 0.9q-0.1 0-0.1 0.1zm12.4 2.5c-0.1-0.1-0.2-0.2-0.3-0.2h-1.7q-0.2-1-0.8-1.8h0.1q0.5 0.7 0.7 1.5h1.7c0.2 0 0.4 0.3 0.3 0.5zm-12.6 3.7v-0.3c0-0.2 0.2-0.3 0.4-0.3h6c1 0 2-0.7 2.4-1.7h0.1c-0.3 1.1-1.4 1.9-2.5 1.9h-6c-0.2 0-0.4 0.2-0.4 0.4zm10.1 8.5c0.1 0.1 0.2 0.2 0.1 0.4q0-0.1-0.1-0.2l-7.8-7.4h0.3z"/>
							</g>
						</g>
						<path id="Layer" class="s9" d="m244.5 90.2c-10.5 0-19-8.5-19-19 0-4.5 1.7-8.7 4.3-12-7.4 2.6-12.7 9.6-12.7 17.9 0 10.5 8.5 18.9 18.9 18.9 5.9 0 11.2-2.7 14.6-6.9-1.9 0.7-4 1.1-6.1 1.1z"/>
					</g>
					<g id="Layer">
						<g id="Layer">
							<g id="Layer">
								<path id="Layer" class="s4" d="m273.8 102.2c-1.4 6.3-7.7 10.4-14 9-6.4-1.4-10.4-7.6-9-14 1.4-6.3 7.6-10.4 14-9 6.3 1.4 10.3 7.6 9 14z"/>
								<path id="Layer" class="s5" d="m272.8 102.2c-1.3 5.8-7.2 9.4-13 8.1-5.8-1.4-9.5-7.2-8.1-13.1 1.4-5.8 7.2-9.4 13-8.1 5.9 1.4 9.5 7.2 8.1 13.1z"/>
								<g id="Layer">
									<path id="Layer" fill-rule="evenodd" class="s6" d="m262.3 109.3c-5.2 0-9.4-4.1-9.4-9.3 0-5.2 4.2-9.4 9.4-9.4 5.1 0 9.3 4.2 9.3 9.4 0 5.2-4.2 9.3-9.3 9.3zm0-18.2c-5 0-9 4-9 8.9 0 4.9 4 8.9 9 8.9 4.9 0 8.9-4 8.9-8.9 0-4.9-4-8.9-8.9-8.9z"/>
								</g>
								<g id="Layer">
									<path id="Layer" fill-rule="evenodd" class="s4" d="m262.3 109.1c-5.2 0-9.4-4.2-9.4-9.4 0-5.2 4.2-9.4 9.4-9.4 5.1 0 9.3 4.2 9.3 9.4 0 5.2-4.2 9.4-9.3 9.4zm0-18.3c-5 0-9 4-9 8.9 0 4.9 4 8.9 9 8.9 4.9 0 8.9-4 8.9-8.9 0-4.9-4-8.9-8.9-8.9z"/>
								</g>
								<path id="Layer" class="s7" d="m262.3 89.5c5.9 0 10.6 4.7 10.8 10.5q0-0.2 0-0.3c0-6-4.8-10.8-10.8-10.8-6 0-10.9 4.8-10.9 10.8q0 0.1 0 0.3c0.2-5.8 5-10.5 10.9-10.5z"/>
							</g>
							<g id="Layer">
								<path id="Layer" class="s7" d="m266.1 97.6v-0.3l-0.4 0.1h-0.9q-0.1-0.6-0.5-1.1h1.2q0.1 0 0.2-0.1l0.3-0.6q0.1 0 0.1-0.1v-0.3h-0.4v0.1h-6.8q-0.1 0-0.2 0.1l-0.1 0.2q-0.2 0.1-0.2 0.1v0.4c-0.1 0.1 0 0.2 0.2 0.2h3.6c0.7 0 1.3 0.5 1.6 1.1h-4.9q-0.1 0-0.2 0.1l-0.1 0.3h-0.2v0.4q-0.1 0 0 0.1c0 0.1 0.1 0.2 0.2 0.2h5.2c-0.2 0.6-0.9 1.1-1.6 1.1h-3.7c-0.1 0-0.3 0.1-0.3 0.3v0.7q0 0.1 0.1 0.2l5.1 4.8v0.1h1c0.1 0 0.2-0.1 0.2-0.3v-0.3l-0.4-0.1-4.5-4.3h2.5c1.3 0 2.4-1 2.6-2.2h0.7q0.1 0 0.2-0.1l0.3-0.6q0.1-0.1 0.1-0.2z"/>
								<path id="Layer" class="s4" d="m264.3 96h1.2q0.1 0 0.2-0.1l0.3-0.6c0.1-0.2 0-0.4-0.2-0.4h-6.9q-0.1 0-0.2 0.2l-0.3 0.5c-0.1 0.2 0 0.4 0.2 0.4h3.6c0.7 0 1.3 0.4 1.6 1.1h-4.9q-0.1 0-0.2 0.1l-0.3 0.6c-0.1 0.1 0 0.3 0.2 0.3h5.2c-0.2 0.7-0.9 1.2-1.6 1.2h-3.7c-0.2 0-0.3 0.1-0.3 0.2v0.8q0 0.1 0.1 0.1l5.1 4.9h1c0.2 0 0.3-0.2 0.1-0.4l-4.8-4.6h2.5c1.3 0 2.4-0.9 2.6-2.2h0.7q0.1 0 0.2-0.1l0.3-0.5c0.1-0.2 0-0.4-0.2-0.4h-1q-0.1-0.6-0.5-1.1z"/>
								<path id="Layer" fill-rule="evenodd" class="s8" d="m258.4 98q-0.1-0.1 0-0.2l0.3-0.6q0.1-0.1 0.2-0.1h4.8q0 0.1 0 0.2h-4.8q-0.1 0-0.2 0.1l-0.3 0.5q0 0.1 0 0.1zm0-2.2q-0.1-0.1 0-0.2l0.3-0.5q0.1-0.2 0.2-0.2h6.9c0.2 0 0.3 0.2 0.3 0.4q-0.1-0.2-0.3-0.2h-6.9q-0.1 0-0.2 0.1l-0.3 0.6q0 0 0 0zm7.7 1.6q-0.1-0.1-0.3-0.1h-1q-0.1-0.7-0.5-1.2h0.1q0.3 0.5 0.4 1h1c0.2 0 0.3 0.2 0.3 0.3zm-7.9 2.3v-0.2c0-0.1 0.1-0.2 0.3-0.2h3.7c0.6 0 1.2-0.4 1.5-1h0.1c-0.2 0.7-0.9 1.2-1.6 1.2h-3.7c-0.2 0-0.3 0.1-0.3 0.2zm6.3 5.2q0.1 0.2 0.1 0.3 0-0.1-0.1-0.1l-4.8-4.6h0.1z"/>
							</g>
						</g>
						<path id="Layer" class="s9" d="m267.5 107.8c-6.5 0-11.7-5.3-11.7-11.8 0-2.8 1-5.4 2.6-7.4-4.6 1.6-7.9 6-7.9 11.1 0 6.5 5.3 11.7 11.8 11.7 3.6 0 6.9-1.6 9-4.2q-1.8 0.6-3.8 0.6z"/>
					</g>
					<g id="Layer">
						<g id="Layer">
							<g id="Layer">
								<path id="Layer" class="s4" d="m171.1 204.7c-1.3 5.6-6.9 9-12.4 7.7-5.6-1.3-9-6.9-7.7-12.4 1.4-5.6 6.9-9 12.5-7.7 5.5 1.4 8.9 6.9 7.6 12.4z"/>
								<path id="Layer" class="s5" d="m170.3 204.6c-1.2 5.1-6.3 8.2-11.4 7-5.2-1.2-8.3-6.3-7.1-11.4 1.2-5.1 6.3-8.3 11.5-7.1 5.1 1.2 8.2 6.3 7 11.5z"/>
								<g id="Layer">
									<path id="Layer" fill-rule="evenodd" class="s6" d="m161.1 210.8c-4.6 0-8.2-3.6-8.2-8.2 0-4.5 3.6-8.2 8.2-8.2 4.5 0 8.2 3.7 8.2 8.2 0 4.6-3.7 8.2-8.2 8.2zm0-16c-4.4 0-7.9 3.5-7.9 7.8 0 4.4 3.5 7.9 7.9 7.9 4.3 0 7.8-3.5 7.8-7.9 0-4.3-3.5-7.8-7.8-7.8z"/>
								</g>
								<g id="Layer">
									<path id="Layer" fill-rule="evenodd" class="s4" d="m161.1 210.6c-4.6 0-8.2-3.7-8.2-8.2 0-4.6 3.6-8.2 8.2-8.2 4.5 0 8.2 3.6 8.2 8.2 0 4.5-3.7 8.2-8.2 8.2zm0-16.1c-4.4 0-7.9 3.5-7.9 7.9 0 4.3 3.5 7.8 7.9 7.8 4.3 0 7.8-3.5 7.8-7.8 0-4.4-3.5-7.9-7.8-7.9z"/>
								</g>
								<path id="Layer" class="s7" d="m161.1 193.4c5.1 0 9.3 4.1 9.5 9.2q0-0.1 0-0.2c0-5.3-4.3-9.6-9.5-9.6-5.3 0-9.5 4.3-9.5 9.6q0 0.1 0 0.2c0.1-5.1 4.3-9.2 9.5-9.2z"/>
							</g>
							<g id="Layer">
								<path id="Layer" class="s7" d="m164.4 200.6v-0.3l-0.3 0.1h-0.8q-0.1-0.6-0.5-1h1.1q0.1 0 0.2-0.1l0.3-0.5q0-0.1 0-0.1v-0.3h-0.3v0.1h-6q-0.1 0-0.1 0.1l-0.2 0.2q-0.1 0-0.2 0v0.4c0 0.1 0.1 0.2 0.2 0.2h3.2c0.6 0 1.2 0.4 1.4 1h-4.3q-0.1 0-0.1 0.1l-0.2 0.2h-0.2v0.3q0 0.1 0 0.1c0.1 0.1 0.1 0.2 0.2 0.2h4.6c-0.2 0.6-0.8 1-1.4 1h-3.3c-0.1 0-0.2 0.1-0.2 0.2v0.7q0 0 0.1 0.1l4.5 4.3h0.8c0.1 0 0.2-0.1 0.2-0.2v-0.3l-0.3-0.1-4-3.8h2.2c1.1 0 2.1-0.8 2.3-1.9h0.6q0.1 0 0.2-0.1l0.3-0.5q0-0.1 0-0.1z"/>
								<path id="Layer" class="s4" d="m162.8 199.1h1.1q0.1 0 0.2-0.1l0.3-0.5c0.1-0.1 0-0.3-0.2-0.3h-6.1q-0.1 0-0.1 0.1l-0.3 0.5c-0.1 0.1 0 0.3 0.1 0.3h3.2c0.6 0 1.2 0.4 1.4 1h-4.3q-0.1 0-0.1 0.1l-0.3 0.5c-0.1 0.1 0 0.3 0.1 0.3h4.6c-0.2 0.6-0.8 1-1.4 1h-3.3c-0.1 0-0.2 0.1-0.2 0.2v0.7q0 0.1 0.1 0.1l4.5 4.3h0.8c0.2 0 0.3-0.2 0.1-0.3l-4.2-4.1h2.2c1.1 0 2.1-0.8 2.3-1.9h0.6q0.1 0 0.2-0.1l0.3-0.5c0.1-0.1 0-0.3-0.2-0.3h-0.9q-0.1-0.6-0.5-1z"/>
								<path id="Layer" fill-rule="evenodd" class="s8" d="m157.6 200.8q0 0 0.1-0.1l0.3-0.5q0-0.1 0.1-0.1h4.2q0 0.1 0.1 0.1h-4.3q-0.1 0-0.1 0.1l-0.3 0.5q-0.1 0-0.1 0zm0-1.8q0-0.1 0.1-0.2l0.3-0.5q0-0.1 0.1-0.1h6.1c0.2 0 0.2 0.1 0.2 0.3q-0.1-0.2-0.2-0.2h-6.1q-0.1 0-0.1 0.1l-0.3 0.5q0 0-0.1 0.1zm6.8 1.4q-0.1-0.2-0.2-0.2h-0.9q-0.1-0.5-0.5-1h0.1q0.3 0.4 0.4 0.9h0.9c0.1 0 0.2 0.1 0.2 0.3zm-6.9 2v-0.2c0-0.1 0.1-0.2 0.2-0.2h3.3c0.6 0 1.1-0.4 1.3-0.9h0.1c-0.2 0.6-0.8 1-1.4 1h-3.3c-0.1 0-0.2 0.1-0.2 0.3zm5.5 4.6q0.1 0.1 0.1 0.2 0-0.1-0.1-0.1l-4.2-4.1h0.1z"/>
							</g>
						</g>
						<path id="Layer" class="s9" d="m165.7 209.5c-5.7 0-10.3-4.6-10.3-10.3 0-2.5 0.8-4.8 2.3-6.6-4 1.4-6.9 5.2-6.9 9.8 0 5.7 4.6 10.3 10.3 10.3 3.2 0 6.1-1.5 7.9-3.8q-1.5 0.6-3.3 0.6z"/>
					</g>
				</g>
			</g>
			<g id="Layer">
				<path id="Layer" class="s5" d="m260.9 276.7l14.1-18.5c0 0-10.1-6.2-21.7-1.5-11.2 4.6-28.1-2.7-28.1-2.7 0 0 0.6 10.9 8.3 20.6 7.7 9.6 27.4 2.1 27.4 2.1z"/>
				<path id="Layer" class="s10" d="m248.9 274.6c-5.3-4.6-9-11.2-11.4-17-6.8-1.2-12.3-3.6-12.3-3.6 0 0 0.6 10.9 8.3 20.6 3.8 4.7 10.4 5.3 16.2 4.7 1.5-1.2 1.5-2.7-0.8-4.7z"/>
				<path id="Layer" class="s5" d="m319.1 371.2c-7.5-46.3-35.5-51.9-58.2-94.5h-13.7-13.7c-22.6 42.6-50.7 48.2-58.2 94.5-7.5 46.3 45.7 46.3 45.7 46.3h26.2 26.2c0 0 53.2 0 45.7-46.3z"/>
				<path id="Layer" class="s10" d="m248.6 396.4c-52.7-6.3-33.9-42.6-16.7-77.6 7.8-15.9 13.4-30.6 17.2-42.1h-1.9-13.7c-22.6 42.6-50.7 48.2-58.2 94.5-7.5 46.3 45.7 46.3 45.7 46.3h26.2 26.2c0 0 50.9 0 46.1-43.3-9 16.8-32.2 26.8-70.9 22.2z"/>
				<path id="Layer" class="s10" d="m264.3 343c3.1-14-5.8-27.7-19.8-30.8q-0.5-0.1-1.1-0.2c-0.9-3.1-2.4-6.2-3.3-9.3-1.9-6.6-1.4-13.5 1.2-19.8 0.2-0.5-0.6-0.7-0.8-0.2-2.4 5.7-3.1 12.1-1.7 18.2 0.8 3.7 2.6 7.3 3.7 11-5-0.7-10 0.1-14.3 2.1q0 0 0 0.1-0.7 0.2-1.3 0.6-0.1 0-0.2 0.1-0.5 0.3-1 0.6-0.1 0-0.2 0.1-0.5 0.3-1 0.6-0.1 0.1-0.2 0.2-0.5 0.4-1.1 0.8 0 0 0 0-1.1 0.9-2.2 1.9-0.1 0.1-0.1 0.1-0.4 0.4-0.8 0.9-0.2 0.1-0.3 0.2-0.3 0.4-0.7 0.8-0.1 0.2-0.2 0.3-0.3 0.4-0.6 0.8-0.2 0.2-0.3 0.3-0.3 0.6-0.7 1.1 0 0 0 0.1-0.4 0.6-0.8 1.2-0.1 0.2-0.1 0.3-0.3 0.5-0.5 1-0.1 0.2-0.2 0.4-0.2 0.4-0.4 0.9-0.1 0.2-0.2 0.4-0.2 0.5-0.3 0.9-0.1 0.3-0.2 0.5-0.2 0.5-0.3 0.9-0.1 0.3-0.2 0.5-0.1 0.7-0.3 1.4c-0.6 2.6-0.7 5.2-0.5 7.8q0.1 1.2 0.3 2.5 0.5 2.5 1.4 4.8c1.1 2.7 2.6 5.2 4.5 7.4q0.9 0.9 1.8 1.8 0.9 0.8 1.9 1.6 1.4 1.2 3.1 2.1c2.2 1.2 4.7 2.2 7.3 2.8q0.8 0.1 1.6 0.3 0.2 0 0.5 0 0.6 0.1 1.3 0.2 0.2 0 0.3 0 0.8 0 1.7 0.1 0.1 0 0.3-0.1 0.7 0 1.3 0 0.2 0 0.4 0 1.6-0.1 3.2-0.5 0.2 0 0.3 0 0.8-0.2 1.5-0.4 0.1 0 0.1 0 0.8-0.3 1.6-0.5 0.1-0.1 0.1-0.1 0.8-0.3 1.5-0.6 0.1 0 0.1 0 1.6-0.7 3-1.6 0.1 0 0.1 0c5.8-3.6 10.3-9.4 11.8-16.6z"/>
				<g id="Layer">
					<path id="Layer" class="s11" d="m265.1 348.9c-6.9 12.5-22.6 17-35.1 10-12.5-7-17-22.7-10-35.2 6.9-12.5 22.6-16.9 35.1-10 12.5 7 17 22.7 10 35.2z"/>
					<path id="Layer" fill-rule="evenodd" class="s12" d="m238.6 360.2c-13.2-2.2-22.1-14.7-20-27.8 2.2-12.8 13.9-21.6 26.7-20.2-1.2-4.2-3.7-8.2-4.9-12.5-1.6-6-1.3-12.4 0.9-18.2 0.1-0.5 1-0.3 0.8 0.2-2.4 6.4-2.5 13.4-0.2 19.8 1.3 3.7 3.3 7.1 4.2 10.9q0.2 0 0.4 0c13.2 2.2 22.1 14.7 20 27.9-2.2 13.1-14.7 22.1-27.9 19.9zm27-20.1c2.2-12.7-6.5-24.8-19.2-26.9q0 0 0 0c0.2 1.3 0.4 2.7 0.3 4.2 0 0.5-0.9 0.5-0.8 0 0.1-1.5-0.1-2.9-0.4-4.3-12.4-1.6-24 7-26 19.4-2.2 12.7 6.5 24.8 19.2 26.9 12.8 2.1 24.8-6.5 26.9-19.3z"/>
					<g id="Layer">
						<path id="Layer" class="s12" d="m250.9 325.8l3.7 0.6c0.2 0 0.4-0.1 0.6-0.3l1.4-1.5c0.3-0.4 0.1-1.1-0.4-1.2l-21-3.4c-0.2-0.1-0.5 0-0.6 0.2l-1.4 1.5c-0.4 0.4-0.1 1.1 0.4 1.2l10.9 1.8c2.2 0.4 3.9 2.1 4.2 4.2l-14.6-2.4c-0.2 0-0.5 0-0.6 0.2l-1.4 1.5c-0.3 0.5-0.1 1.1 0.4 1.2l15.8 2.6c-1 2-3.2 3.1-5.4 2.8l-11.3-1.9c-0.3-0.1-0.7 0.2-0.8 0.6l-0.4 2.3q0 0.3 0.2 0.5l13 17.3 0.1 0.2 2.7 0.4c0.7 0.1 1.1-0.6 0.7-1.1l-12.3-16.5 7.6 1.3c3.9 0.6 7.7-1.7 9.1-5.4l2 0.4c0.2 0 0.5-0.1 0.6-0.2l1.4-1.6c0.4-0.4 0.1-1-0.4-1.1l-3.1-0.6c-0.1-1.3-0.4-2.5-1.1-3.7z"/>
					</g>
					<path id="Layer" class="s13" d="m247.1 354.3c-14.1-2.3-23.7-15.6-21.3-29.7 0.7-4.2 2.3-8 4.7-11.2-6.9 3.7-12.1 10.4-13.5 18.7-2.3 14.1 7.2 27.4 21.3 29.7 9.9 1.7 19.4-2.6 25-10.1-4.8 2.5-10.4 3.6-16.2 2.6z"/>
				</g>
				<g id="Layer">
					<path id="Layer" class="s14" d="m262.9 282.7h-31.3c-0.7 0-1.3-0.2-1.7-0.6-0.7-0.5-1.1-1.3-1.1-2.2q0-0.8 0.4-1.4c0.5-0.8 1.3-1.4 2.4-1.4h31.3c0.9 0 1.6 0.4 2.1 1.1 0.4 0.4 0.7 1 0.7 1.7 0 0.6-0.2 1.2-0.6 1.7-0.5 0.7-1.3 1.1-2.2 1.1z"/>
					<path id="Layer" class="s15" d="m265.1 279c-0.5 0.7-1.3 1.2-2.2 1.2h-31.3c-0.7 0-1.3-0.2-1.7-0.6q-0.5-0.4-0.8-0.9-0.3 0.5-0.3 1.2c0 0.9 0.4 1.7 1.1 2.2 0.4 0.4 1 0.6 1.7 0.6h31.3c0.9 0 1.7-0.4 2.2-1.1 0.4-0.5 0.6-1.1 0.6-1.7q0-0.7-0.3-1.2-0.1 0.2-0.3 0.3z"/>
				</g>
				<g id="Layer">
					<path id="Layer" class="s14" d="m262.9 277.1h-31.3c-0.7 0-1.3-0.2-1.7-0.6-0.7-0.5-1.1-1.3-1.1-2.2q0-0.8 0.4-1.4c0.5-0.8 1.3-1.4 2.4-1.4h31.3c0.9 0 1.6 0.4 2.1 1.1 0.4 0.4 0.7 1 0.7 1.7 0 0.6-0.2 1.2-0.6 1.7-0.5 0.7-1.3 1.1-2.2 1.1z"/>
					<path id="Layer" class="s15" d="m265.1 273.4c-0.5 0.7-1.3 1.2-2.2 1.2h-31.3c-0.7 0-1.3-0.2-1.7-0.6q-0.5-0.4-0.8-1-0.3 0.6-0.3 1.3c0 0.9 0.4 1.7 1.1 2.2 0.4 0.4 1 0.6 1.7 0.6h31.3c0.9 0 1.7-0.4 2.2-1.1 0.4-0.5 0.6-1.1 0.6-1.7q0-0.7-0.3-1.2-0.1 0.2-0.3 0.3z"/>
				</g>
			</g>
			<g id="Layer">
				<path id="Layer" class="s16" d="m253.5 412l-5.8-5.7 36.7-1.4 49.1 1.5-41.1 7.4z"/>
				<path id="Layer" class="s17" d="m300.9 419.8l-53.2-2.3v-11.2l53.2 2.3z"/>
				<path id="Layer" class="s18" d="m300.9 419.8l-53.2-2.3v-1.6l53.2 2.3z"/>
				<path id="Layer" class="s12" d="m282.4 419l-16.1-0.7v-11.2l16.1 0.7z"/>
				<path id="Layer" class="s19" d="m267.8 406.3h1.3v11.2h-1.3z"/>
				<path id="Layer" class="s19" d="m279.5 406.3h1.3v11.2h-1.3z"/>
				<path id="Layer" class="s20" d="m282.4 419l-16.1-0.7v-1.6l16.1 0.7z"/>
				<path id="Layer" class="s21" d="m333.5 417.5l-32.6 2.3v-11.2l32.6-2.3z"/>
				<path id="Layer" class="s17" d="m333.5 417.5l-32.6 2.3v-1.6l32.6-2.3z"/>
				<path id="Layer" class="s22" d="m269.1 418.4l-1.3-0.1v-1.6l1.3 0.1z"/>
				<path id="Layer" class="s22" d="m280.8 419l-1.3-0.2v-1.5h1.3z"/>
			</g>
			<g id="Layer">
				<path id="Layer" class="s16" d="m250.8 400.5l-5.8-5.7 36.7-1.4 49 1.5-41 7.4z"/>
				<path id="Layer" class="s17" d="m298.2 408.3l-53.2-2.3v-11.2l53.2 2.3z"/>
				<path id="Layer" class="s18" d="m298.2 408.3l-53.2-2.3v-1.6l53.2 2.3z"/>
				<path id="Layer" class="s12" d="m279.6 407.5l-16-0.7v-11.2l16 0.7z"/>
				<path id="Layer" class="s19" d="m265.1 394.8h1.3v11.2h-1.3z"/>
				<path id="Layer" class="s19" d="m276.7 394.8h1.3v11.2h-1.3z"/>
				<path id="Layer" class="s20" d="m279.6 407.5l-16-0.7v-1.6l16 0.7z"/>
				<path id="Layer" class="s21" d="m330.7 406l-32.5 2.3v-11.2l32.5-2.3z"/>
				<path id="Layer" class="s17" d="m330.7 406l-32.5 2.3v-1.6l32.5-2.3z"/>
				<path id="Layer" class="s22" d="m266.4 406.9l-1.3-0.1v-1.5h1.3z"/>
				<path id="Layer" class="s22" d="m278 407.5l-1.3-0.2v-1.5h1.3z"/>
			</g>
			<g id="Layer">
				<path id="Layer" class="s16" d="m255.4 389l-5.8-5.7 36.7-1.5 49 1.6-41 7.4z"/>
				<path id="Layer" class="s17" d="m302.8 396.8l-53.2-2.3v-11.2l53.2 2.3z"/>
				<path id="Layer" class="s18" d="m302.8 396.8l-53.2-2.3v-1.6l53.2 2.3z"/>
				<path id="Layer" class="s12" d="m284.3 396l-16.1-0.7v-11.2l16.1 0.7z"/>
				<path id="Layer" class="s19" d="m269.7 383.3h1.3v11.2h-1.3z"/>
				<path id="Layer" class="s19" d="m281.4 383.3h1.3v11.2h-1.3z"/>
				<path id="Layer" class="s20" d="m284.3 396l-16.1-0.7v-1.6l16.1 0.7z"/>
				<path id="Layer" class="s21" d="m335.3 394.5l-32.5 2.3v-11.2l32.5-2.3z"/>
				<path id="Layer" class="s17" d="m335.3 394.5l-32.5 2.3v-1.6l32.5-2.3z"/>
				<path id="Layer" class="s22" d="m271 395.4l-1.3-0.1v-1.6l1.3 0.1z"/>
				<path id="Layer" class="s22" d="m282.7 396l-1.3-0.2v-1.5h1.3z"/>
			</g>
			<g id="Layer">
				<path id="Layer" fill-rule="evenodd" class="s19" d="m245.1 278.6c0.8 0 1.7 0.6 2 1.3l3.2 6.3h14.7l-3.2-6.3c-0.4-0.7 0-1.3 0.7-1.3 0.8 0 1.7 0.6 2.1 1.3l51.2 102.1c0.4 0.7 0.1 1.3-0.7 1.3-0.7 0-1.6-0.6-2-1.3l-3.2-6.3h-14.7l3.2 6.3c0.4 0.7 0.1 1.3-0.7 1.3-0.8 0-1.7-0.6-2-1.3l-51.3-102.1c-0.4-0.7-0.1-1.3 0.7-1.3zm6.4 9.9l3.7 7.4h14.7l-3.8-7.4zm47.6 65.5l-3.7-7.4h-14.7l3.7 7.4zm-13.5 2.3l3.7 7.4h14.7l-3.7-7.4zm8.6-12l-3.7-7.4h-14.6l3.7 7.4zm-4.9-9.7l-3.7-7.4h-14.7l3.7 7.4zm-4.8-9.6l-3.7-7.4h-14.7l3.7 7.4zm-4.9-9.7l-3.7-7.4h-14.7l3.7 7.4zm-4.8-9.7l-3.7-7.4h-14.7l3.7 7.4zm34 67.8l-3.7-7.4h-14.6l3.7 7.4z"/>
				<path id="Layer" fill-rule="evenodd" class="s22" d="m298.3 383.2q-0.2 0.1-0.5 0.1c-0.8 0-1.7-0.6-2.1-1.3l-51.2-102.1c-0.4-0.7-0.1-1.3 0.7-1.3q0.3 0 0.7 0.1c-0.4 0.2-0.5 0.7-0.2 1.2l51.2 102.1c0.3 0.5 0.9 1 1.4 1.2zm-16.3-65.6l3.7 7.4h-1.2l-3.7-7.4zm-4.8-9.7l3.7 7.4h-1.2l-3.7-7.4zm14.6 29l3.7 7.4h-1.2l-3.7-7.4zm13.4 26.8h-1.2l-3.7-7.4h1.2zm-8.6-17.1l3.7 7.4h-1.2l-3.7-7.4zm19.1 36.6q-0.2 0.1-0.5 0.1c-0.7 0-1.7-0.6-2-1.3l-3.2-6.3h1.2l3.2 6.3c0.2 0.5 0.8 1 1.3 1.2zm-43.4-85l3.7 7.4h-1.2l-3.7-7.4zm-10.4-18.3c-0.4-0.7 0-1.3 0.7-1.3q0.3 0 0.7 0.1c-0.4 0.2-0.5 0.7-0.2 1.2l3.2 6.3h-1.2zm25 47.4l3.7 7.4h-1.2l-3.7-7.4zm-19.5-38.7l3.7 7.3h-1.2l-3.7-7.3zm42.6 84.8h-1.2l-3.7-7.4h1.2z"/>
			</g>
		</g>
	</g>
	<g id="DESIGNED_BY_FREEPIK">
	</g>
</svg>