<svg version="1.2" xmlns="http://www.w3.org/2000/svg" viewBox="0 0 500 500" width="500" height="500">
	<title>3421690_508479-PIHXIS-830-svg</title>
	<defs>
		<clipPath clipPathUnits="userSpaceOnUse" id="cp1">
			<path d="m97.58 379.31v-15.02h112.65v15.02z"/>
		</clipPath>
		<clipPath clipPathUnits="userSpaceOnUse" id="cp2">
			<path d="m92.74 361.89v-15.01h112.65v15.01z"/>
		</clipPath>
	</defs>
	<style>
		.s0 { fill: #8cbfda } 
		.s1 { opacity: .5;fill: #cacaca } 
		.s2 { fill: #d03240 } 
		.s3 { fill: #ae2436 } 
		.s4 { fill: #404799 } 
		.s5 { fill: #3b448e } 
		.s6 { fill: #e9f4f9 } 
		.s7 { fill: #18186b } 
		.s8 { fill: #1c1980 } 
		.s9 { fill: #f1e28e } 
		.s10 { fill: #ca9a27 } 
		.s11 { fill: none;stroke: #ecd757;stroke-miterlimit:10;stroke-width: 1.9 } 
		.s12 { fill: #ecd757 } 
		.s13 { fill: #b68d24 } 
	</style>
	<g id="BACKGROUND">
		<path id="Layer" class="s0" d="m0 0h500v500h-500z"/>
	</g>
	<g id="OBJECTS">
		<g id="Layer">
			<path id="Layer" class="s1" d="m242 398.2c-100.1 0-181-7.5-181-16.9 0-9.4 80.9-16.9 181-16.9 100.1 0 181 7.5 181 16.9 0 9.4-80.9 16.9-181 16.9z"/>
			<g id="Layer">
				<path id="Layer" class="s2" d="m451.6 97.5l-135.8 38.2 32.8 33.2c-36.4 37-81.9 83.5-83.1 85.7-2.1 3.7-37.4-68.5-37.4-68.5l-95.4 105.4-34.8-46.1-76.2 85.1 71.1-48.4 38.4 50.1 85.8-87.1 36.5 74.7 127.5-118.1 35.3 35.7z"/>
				<path id="Layer" class="s3" d="m254.9 320l128.6-115.7-7.3-8.8z"/>
				<path id="Layer" class="s3" d="m131.2 332.2l90.7-77.3-4.9-9.8z"/>
				<path id="Layer" class="s3" d="m92.8 282.1l-71.1 48.4 75.9-42.2z"/>
			</g>
			<g id="Layer">
				<g id="Layer">
					<path id="Layer" class="s4" d="m318.9 248.5c-15.9-27.4-58.5-15.2-58.7-15.1-12.2 15.7-28.3 40-35.7 67.5-12.9 47.5 2.9 71.5 2.9 71.5 0 0 8.9 18.4 60.5 13.2 17.6-1.7 33.6-1.1 47.1-1.4 22.9-46.6-0.1-108.3-16.1-135.7z"/>
					<path id="Layer" class="s5" d="m378.9 348c1.1-41.6-37.2-114.7-64.5-133h-38.2c0 0-7 6.8-16 18.4 0.2-0.1 42.8-12.3 58.7 15.1 16 27.4 39 89.1 16.1 135.7 26.3-0.6 43.1-4.6 43.9-36.2z"/>
				</g>
				<path id="Layer" class="s4" d="m276.2 215c0 0-32-47-9.5-46.2 22.5 0.8 18.4 8.9 32.5 7.4 14.1-1.6 16.8-11.7 33.1-5.4 16.4 6.2-21.3 48.5-21.3 48.5z"/>
				<path id="Layer" class="s6" d="m309.8 278.4c3 0 5.4-2.4 5.4-5.5 0-3-2.4-5.4-5.4-5.4h-30.9-12.4c-3 0-5.5 2.4-5.5 5.4 0 3.1 2.5 5.5 5.5 5.5h12.4c5.3 0 9.8 3.1 11.9 7.7h-24.3c-3 0-5.4 2.4-5.4 5.4 0 3 2.4 5.5 5.4 5.5h24.3c-2.1 4.5-6.6 7.6-11.9 7.6h-12.4c-2.3 0-4.3 1.4-5.1 3.5-0.8 2.1-0.3 4.5 1.3 6l30.9 29.2c1.1 1 2.4 1.5 3.8 1.5 1.5 0 2.9-0.6 4-1.7 2.1-2.2 2-5.6-0.2-7.7l-21-19.8c10.8-0.6 19.7-8.3 22.1-18.6h7.5c3 0 5.4-2.4 5.4-5.4 0-3-2.4-5.5-5.4-5.5h-7.5c-0.7-2.7-1.8-5.3-3.3-7.6h10.8c0 0 0-0.1 0-0.1z"/>
				<path id="Layer" class="s4" d=""/>
				<path id="Layer" class="s5" d="m295.6 385c0 0-32.8 0-41.3-17.9 0 0-1.6 14.1 11.4 19.4 0 0 23 0.6 29.9-1.5z"/>
				<path id="Layer" class="s5" d="m307.4 204.2c0 0 10.8-16.1 13.7-35.4 0 0 22.1-2.1 13.9 14.9 0 0-3.5 11.2-17.1 27.3z"/>
				<g id="Layer">
					<path id="Layer" class="s7" d="m276.5 216.7c-1.2 0-2.4-0.5-3.1-1.6-1.1-1.7-0.6-3.9 1.1-5 0.7-0.5 18.6-12 43.5-3.1 1.9 0.6 2.9 2.7 2.2 4.6-0.6 1.8-2.7 2.8-4.6 2.1-21.4-7.6-36.5 2-37.2 2.4-0.6 0.4-1.2 0.6-1.9 0.6z"/>
					<path id="Layer" class="s8" d="m322.9 222.6q-0.6 0-1.2-0.2c-31.4-11-51.5-0.4-51.7-0.3-1.8 1-4 0.3-4.9-1.4-1-1.8-0.3-4 1.4-4.9 1-0.5 23.2-12.3 57.6-0.2 1.9 0.6 2.9 2.7 2.2 4.6-0.5 1.4-1.9 2.4-3.4 2.4z"/>
					<path id="Layer" class="s8" d="m301.3 248.8q-0.7 0-1.4-0.3c-1.8-0.8-2.7-2.9-1.9-4.7 9.2-21.8 1.3-26.1 1.2-26.2 0.1 0.1-0.3-0.2-0.3-0.2l3.2-6.4c0.4 0.2 4 1.8 6.1 6.9 2.8 6.8 1.6 16.5-3.5 28.7-0.6 1.4-2 2.2-3.4 2.2z"/>
					<path id="Layer" class="s8" d="m331.9 259.1c-2 0.2-3.8-1.2-4.1-3.1 0-0.1-0.9-6.7-4.3-14.3-4.4-9.8-10.6-16.5-18.5-20-1.8-0.8-2.6-2.9-1.8-4.7 0.8-1.9 2.9-2.7 4.7-1.9 22.8 10.1 26.9 38.7 27.1 39.9 0.3 2-1.1 3.8-3.1 4z"/>
				</g>
			</g>
			<g id="Layer">
				<path id="Layer" fill-rule="evenodd" class="s9" d="m97.6 364.3c0 0 56.3-3.2 112.6 0z"/>
				<path id="Layer" class="s10" d="m97.6 379.3v-15h112.6v15z"/>
				<g id="Layer">
					<g id="Clip-Path" clip-path="url(#cp1)">
						<g id="Layer">
							<path id="Layer" class="s11" d="m102.7 384v-22.1"/>
							<path id="Layer" class="s11" d="m111.3 383.6v-22.1"/>
							<path id="Layer" class="s11" d="m119.9 383.2v-22.1"/>
							<path id="Layer" class="s11" d="m128.5 382.2v-22.1"/>
							<path id="Layer" class="s11" d="m137.1 382.9v-22"/>
							<path id="Layer" class="s11" d="m145.7 382.9v-22"/>
							<path id="Layer" class="s11" d="m154.3 384.1v-22.1"/>
							<path id="Layer" class="s11" d="m162.9 382.9v-22"/>
							<path id="Layer" class="s11" d="m188.8 383.9v-22"/>
							<path id="Layer" class="s11" d="m171.5 382.9v-22"/>
							<path id="Layer" class="s11" d="m197.4 382.9v-22.1"/>
							<path id="Layer" class="s11" d="m180.1 383.4v-22.1"/>
							<path id="Layer" class="s11" d="m206 382.6v-22.1"/>
						</g>
					</g>
				</g>
			</g>
			<g id="Layer">
				<path id="Layer" fill-rule="evenodd" class="s9" d="m92.7 346.9c0 0 56.4-3.2 112.7 0z"/>
				<path id="Layer" class="s10" d="m92.7 361.9v-15h112.7v15z"/>
				<g id="Layer">
					<g id="Clip-Path" clip-path="url(#cp2)">
						<g id="Layer">
							<path id="Layer" class="s11" d="m97.8 366.6v-22.1"/>
							<path id="Layer" class="s11" d="m106.4 366.2v-22.1"/>
							<path id="Layer" class="s11" d="m115 365.8v-22.1"/>
							<path id="Layer" class="s11" d="m123.6 364.8v-22.1"/>
							<path id="Layer" class="s11" d="m132.3 365.5v-22.1"/>
							<path id="Layer" class="s11" d="m140.9 365.5v-22.1"/>
							<path id="Layer" class="s11" d="m149.5 366.7v-22.1"/>
							<path id="Layer" class="s11" d="m158.1 365.5v-22.1"/>
							<path id="Layer" class="s11" d="m183.9 366.5v-22.1"/>
							<path id="Layer" class="s11" d="m166.7 365.5v-22.1"/>
							<path id="Layer" class="s11" d="m192.5 365.5v-22.1"/>
							<path id="Layer" class="s11" d="m175.3 366v-22.1"/>
							<path id="Layer" class="s11" d="m201.1 365.2v-22.1"/>
						</g>
					</g>
				</g>
			</g>
			<g id="Layer">
				<g id="Layer">
					<path id="Layer" class="s10" d="m191.5 385.2c-28.5 0-51.4-23-51.4-51.4 0-28.4 22.9-51.4 51.4-51.4 28.4 0 51.4 23 51.4 51.4 0 28.4-23 51.4-51.4 51.4z"/>
					<path id="Layer" class="s12" d="m189.2 385.2c-28.4 0-51.4-23-51.4-51.4 0-28.4 23-51.4 51.4-51.4 28.5 0 51.5 23 51.5 51.4 0 28.4-23 51.4-51.5 51.4z"/>
					<path id="Layer" class="s12" d="m189.2 385.2c-28.4 0-51.4-23-51.4-51.4 0-28.4 23-51.4 51.4-51.4 28.5 0 51.5 23 51.5 51.4 0 28.4-23 51.4-51.5 51.4z"/>
					<path id="Layer" class="s10" d="m189.2 375.3c-22.9 0-41.4-18.6-41.4-41.5 0-22.9 18.5-41.4 41.4-41.4 23 0 41.5 18.5 41.5 41.4 0 22.9-18.5 41.5-41.5 41.5z"/>
					<g id="Layer">
						<path id="Layer" class="s9" d="m189.2 292.4q-0.4 0-0.9 0c22.5 0.5 40.6 18.8 40.6 41.4 0 22.6-18.1 41-40.6 41.5q0.5 0 0.9 0c22.9 0 41.5-18.6 41.5-41.5 0-22.9-18.6-41.4-41.5-41.4z"/>
					</g>
					<path id="Layer" class="s13" d="m150.6 333.8c0-22.4 17.8-40.7 40-41.4q-0.7 0-1.4 0c-22.8 0-41.4 18.5-41.4 41.4 0 22.9 18.6 41.5 41.4 41.5q0.7 0 1.4-0.1c-22.2-0.7-40-19-40-41.4z"/>
				</g>
				<g id="Layer">
					<path id="Layer" fill-rule="evenodd" class="s13" d="m195.7 316.9c1.5 2 2.6 4.3 3.2 6.8h7.6l-2.9 8.8h-4.2c-1.3 9.2-7.6 16.3-16.6 17.5l13.7 19.3h-10.8l-13.5-19v-8.9h7.3c5.4 0 9.9-3.7 11-8.8h-20.3l2.9-8.8h16.8c-1.7-4.1-5.8-6.8-10.4-6.8h-9.3l2.9-8.9h33.4l-2.9 8.9h-7.9z"/>
					<path id="Layer" fill-rule="evenodd" class="s12" d="m197.7 315.1c1.4 2 2.5 4.3 3.2 6.8h7.6l-3 8.8h-4.2c-1.2 9.1-7.5 16.3-16.5 17.5l13.6 19.2h-10.7l-13.6-19v-8.8h7.4c5.3 0 9.9-3.7 11-8.8h-20.4l3-8.8h16.7c-1.6-4.1-5.7-6.9-10.3-6.9h-9.4l3-8.8h33.4l-3 8.8h-7.9c0 0 0 0 0.1 0z"/>
				</g>
			</g>
		</g>
	</g>
	<g id="DESIGNED_BY_FREEPIK">
	</g>
</svg>